<?xml version="1.0" encoding="utf-8"?>
<!-- Generator: Adobe Illustrator 25.4.8, SVG Export Plug-In . SVG Version: 6.00 Build 0)  -->
<svg version="1.1" id="Layer_1" xmlns="http://www.w3.org/2000/svg" xmlns:xlink="http://www.w3.org/1999/xlink" x="0px" y="0px"
	 viewBox="0 0 2500 3000" style="enable-background:new 0 0 2500 3000;" xml:space="preserve">
<style type="text/css">
	.st0{fill:#F6D33C;}
	.st1{fill:#2F9C5C;}
	.st2{fill:#FFFFFF;}
	.st3{fill:#CF4037;}
	.st4{fill:#D35B31;}
	.st5{fill:none;}
</style>
<path class="st0" d="M1916.77,316.65v256.53H583.89v2109.85c0,36.71,30.15,66.85,66.93,66.85h1199.01
	c36.9-0.09,66.8-29.96,66.93-66.85V316.9V316.65z"/>
<path class="st1" d="M1849.84,249.97H650.83c-36.79,0-66.93,32.14-66.93,71.42v35.54h1332.88v-35.79
	C1916.61,282.02,1886.63,249.97,1849.84,249.97z"/>
<path class="st2" d="M583.89,359.67v101.32V359.67z M583.89,359.67h1332.88v101.32H583.89V359.67z M583.89,350.12v9.55V350.12z"/>
<path class="st3" d="M583.89,462.4h1332.88v110.78H583.89V462.4z"/>
<path class="st4" d="M583.89,460.99v1.41V460.99z M583.89,460.99h1332.88v1.41H583.89V460.99z"/>
<path d="M643.94,2646.33V2621h14.03c7.06,0,21.09-1.49,21.09-18.35v-151.89c0-9.14-0.66-30.98-18.27-30.98H644.6l18.35-32.3h1081.92
	v32.3H749.49c-9.14,0-21.09,2.08-21.09,20.43v47.83c2.08,5.56,10.55,7.72,14.78,7.72c4.24,0,19.02-0.75,19.02-23.92h21.01v78.06
	h-21.09c0-7.06-7.81-18.85-18.27-19.68c-8.47-0.66-15.45,2.16-15.45,13.45v59.05c0,6.31,7.72,18.35,25.99,18.35h12.62v25.33H643.94
	V2646.33L643.94,2646.33z"/>
<path d="M1268.35,2456.4c0,5.65,6.98,11.29,11.21,12.62c4.98-3.49,30.98-18.27,51.32-18.27c20.35,0,30.98,10.55,30.98,26.74v77.4
	h-49.25v-59.88c0-7.72-2.08-13.29-9.14-14.03c-7.06-0.75-25.33,14.12-30.23,21.18v106.88c0,9.88,9.88,16.86,18.27,16.86v20.43
	h-85.79v-21.09c8.47,0,17.61-2.82,18.27-15.53v-118.92c0-3.49-5.65-13.29-18.27-13.29v-21.18h62.62V2456.4z M1857.15,2456.4h-85.79
	v21.18c12.62,0,18.27,9.8,18.27,13.29v118.92c-0.66,12.62-9.88,15.53-18.27,15.53v21.09h85.79v-20.51
	c-8.47,0-18.27-6.98-18.27-16.86v-116.68c0-8.47,9.14-14.78,18.27-14.78V2456.4z M1078.51,2456.4c0,5.65,6.98,11.29,11.21,12.62
	c4.98-3.49,30.98-18.27,51.32-18.27c20.43,0,30.98,10.55,30.98,26.74v77.4h-49.25v-59.88c0-7.72-2.08-13.29-9.14-14.03
	c-7.06-0.75-25.33,14.03-30.23,21.09v106.88c0,9.88,9.88,16.86,18.27,16.86v20.43h-85.79v-21.09c8.47,0,17.61-2.82,18.27-15.53
	V2490.7c0-3.49-5.65-13.29-18.27-13.29v-21.18h62.62V2456.4L1078.51,2456.4z M1648.95,2456.4c0,5.65,7.06,11.29,11.29,12.62
	c4.98-3.49,30.98-18.27,51.32-18.27c20.35,0,30.98,10.55,30.98,26.74v77.4h-49.25v-59.88c0-7.72-2.08-13.29-9.14-14.03
	c-7.06-0.75-25.33,14.03-30.23,21.09v106.88c0,9.88,9.8,16.86,18.27,16.86v20.43h-85.79v-21.09c8.47,0,17.52-2.82,18.27-15.53
	V2490.7c0-3.49-5.65-13.29-18.27-13.29v-21.18h62.53V2456.4L1648.95,2456.4z M978.69,2587.36h-49.16v19.02
	c0,7.72-1.41,23.92-24.58,23.92s-30.23-15.53-30.23-26.74v-40.03c0-3.57,2.82-8.47,7.72-8.47h96.33v-51.32
	c0-23.25-4.9-30.31-14.78-40.11c-9.88-9.8-44.35-12.62-59.79-12.62c-39.36,0-52.07,5.56-63.28,14.78
	c-11.29,9.14-15.53,28.15-15.53,42.19v79.56c0,21.09,4.24,35.88,17.61,49.25c13.37,13.29,54.15,13.29,62.62,13.29
	c8.47,0,36.54,0.75,56.97-14.03C983.01,2621.08,978.69,2587.36,978.69,2587.36L978.69,2587.36z M874.64,2500.08
	c0-11.29,3.49-28.15,28.15-28.15s26.74,18.35,26.74,28.15v25.33c-0.05,4.66-3.81,8.43-8.47,8.47h-37.95c-4.15,0-8.47-3.49-8.47-7.72
	V2500.08L874.64,2500.08z M1542.82,2609.04v-105.47c0-16.19-0.75-33.05-17.61-45.09c-16.86-11.96-44.35-11.21-54.89-11.21
	s-45.67,0-61.95,18.27c-16.11,18.35-13.37,35.88-13.37,42.93h46.09c0,0,3.16-23.92,9.55-30.23c6.31-6.31,23.17-13.37,36.21-2.08
	c4.82,4.15,6.73,9.47,6.73,15.53v30.23c0,2.82-2.82,7.06-6.39,7.06c0,0-64.03,1.41-75.24,9.8c-11.21,8.47-21.09,14.03-21.09,45.01
	c0,30.98,7.72,42.93,16.86,49.25s13.37,13.37,54.89,13.37h98.49v-20.51C1552.62,2625.9,1542.82,2618.92,1542.82,2609.04z
	 M1493.57,2621.08c0,1.74-2.82,4.24-4.98,4.24h-24.25c-17.27,0-22.17-14.78-22.17-23.92v-27.07c0-26.33,27.41-25.74,38.28-25.74
	c10.96,0,13.04,9.14,13.04,15.2v57.3L1493.57,2621.08L1493.57,2621.08z M1810.97,2419.53c24.66,0,44.6-7.47,44.6-16.69
	s-19.93-16.69-44.6-16.69c-24.58,0-44.51,7.47-44.51,16.69S1786.39,2419.53,1810.97,2419.53z M1193.12,1681.42l-2.57,6.31
	l7.64,37.62l10.3,34.21l28.15,61.87l27.32,47.75l21.67,29.48l0.42,7.14l-1.33,5.98l-5.48,2.16l-45.51-0.83l-44.93-6.81l-46.92-16.69
	l-20.84-1.25l-5.98,2.57l-27.4-2.99l-10.96-3.82l-72.17-1.74l-8.97,3.74l-6.39,1.83l-2.16,2.99l0.42,5.9l17.52,25.74l6.81,2.91
	l23.09,14.45l13.29,4.32l36.21-1.25l26.82-7.31l5.23,2.57l2.41,5.15l4.4,1.25l23.92,0.42l6.81,2.16l8.06-2.16l44.35,5.98
	l50.82,12.79l39.86,15.78l7.31,5.23l19.27,0.83l10.3-2.57l11.38-24.83l-1.74-11.05l-16.94-33.72l-7.64-20.84l-8.14-43.6l2.08-42.69
	l2.57-11.46l-3.07-9.97l-28.07-20.84l-5.98-25.49l-16.44-23.83l-39.7-32.06l-16.28-6.39l-6.81,1.08L1193.12,1681.42L1193.12,1681.42
	z M1208.4,810.77l-1.16-12.37l-17.52-21.26l-5.4-1.58l-3.74,5.31l0.5,6.39l-5.9,5.31l-0.58,7.39l16.69,10.8H1208.4L1208.4,810.77z"
	/>
<path class="st5" d="M1174.18,796.82l0.42-1"/>
<path d="M1777.42,1340.52l-5.98-2.74v9.05l-4.73,5.31l-8.55,12.79l-4.82,3.16l-18.69,24.66l-6.39,14.37l-6.98,1.16l-6.39-3.82
	l-3.74-17.02l1-19.76l4.32-18.27l32.06-49.08l12.71-26.08l1.66-18.27l-1.99-5.73l-3.82,3.74l-6.39,15.94l-9.72,16.03l-30.89,27.65
	l-24.58,28.9l-4.82-0.5l-1.66-4.9l1.08-33.63l7.47-24.5l13.37-27.24l17.69-21.92l21.92-18.69l1.99-4.4l-2.66-1.99l-20.26,11.79
	l-34.71,30.39l-13.79,18.77l-13.45,24.5l-7.39,19.76l-3.24,46.42l12.79,51.9l12.29,37.79l12.79,79.97l-2.08,38.45l-9.13,34.13
	l-22.51,28.32l-22.84,20.84l-29.4,16.53l-28.24,1.66l-3.82-13.79l-10.13-19.85l-35.21-46.92l-26.24-25.08l-38.37-30.98l-36.79-25
	l-52.9-44.26l-28.73-35.88l-31.64-51.74l-8.55-30.98l2.16-19.27l4.32-3.74l28.9,16.03l14.28-0.58l34.21,18.27l20.93,15.53
	l12.12,1.66l2.82-5.31l-3.24-0.58l-3.74,1.66l-5.98-3.82l-12.79-20.26l-14.45-13.29l-22.34-6.98l1.58-4.24h11.21l12.87,4.24
	l27.24,16.03l3.24-4.32l-5.31-7.47l-14.45-12.87l-22.51-11.71l-27.16-10.63l-5.31-4.32l5.31-3.82l12.12,5.98l22.51,3.74l36.79,15.94
	l22.51,3.16l16.03-2.16l21.34-11.79l5.31-5.15l0.58-3.74l-4.9,0.33l-4.82,4.98l-29.81,7.39l-11.79-1.66l-11.29-8.97l-10.21-11.88
	l-12.04-8.97l-35.79-9.72l-7.56-4.82l0.58-4.15l6.98,1l55.47-2.57l6.98,5.73l20.26,2.74l4.24-3.16l-7.39-2.16l-18.77-14.95
	l-15.53-8.14l-24.5-3.16l-4.24-2.57l8.55-4.82h13.87l38.45,15.86l17.11,0.58l9.05-4.32l2.66-5.81l-6.89-3.16l-14.37-0.58
	l-12.29-4.24l-10.71-9.13l-11.79-5.9l-15.53-2.57l-13.37-4.82l-5.81-7.56l1-3.74l19.27,4.98l6.39,4.73l9.14,1.08l1-4.82l-9.55-7.56
	l-2.74-6.81l12.87,1.99l12.12,6.39l15.53,1.74l5.98,11.21l15.94,9.55l0.91-0.17l3.49-1.49l4.15-2.57l-1.99-3.16l-5.98,0.42
	l-16.03-23.92l-18.69-16.61l-19.18-8.64l-17.02-20.26l-10.71-5.73l-1.66-5.4l4.82-3.24l44.35,12.71l6.89,9.72l11.21,5.81h8.55
	l11.38,3.16l12.29-2.16l4.73-4.24l-6.89-5.9l-21.92-4.24l-6.98-5.9l-9.14-13.29l-2.16-8.64l-39.03-27.65l-15.86-14.95l-1.08-4.32
	h3.65l20.84,16.61l32.64,20.84l14.37,13.37l20.26,9.05l3.74-5.9l-5.31-1.99l-11.13-10.13l-3.24-11.29l-21.43-20.93l-4.82-12.12
	l-16.53-24.75l-22.51-19.68l-1-6.31l7.97,1l29.4,13.37l18.69,1l13.87,6.56l14.95,2.57l12.71-3.82l-1-5.31l-14.53-3.16l-52.32-25.66
	l-7.22-9.05l2.57-3.16l3.82,2.57l5.73,2.08l7.56,0.66l38.95-2.16l12.29,4.82l12.79,9.05l5.4,1.66l0.58-4.82l-4.32-4.32l-12.79-11.79
	l-19.85-10.13l-41.61-3.24l-20.26-21.34l-21.26-15.94l4.82-3.74l35.79,15.53l20.26,4.82h17.52l14.45,16.11l11.79,6.89l4.24-4.32
	l-16.03-23.58l-25.08-18.1l-20.84-4.98l-17.69-18.52l-15.53-9.05l-21.26-5.4l11.79-10.13l36.37-11.79l3.65-4.82l-1.99-3.74
	l-16.86-3.74l-60.21,1.16l-10.71-11.88l-27.74-14.87l-20.26-3.24h-17.52L1249,791.42l-19.85-18.02l-12.21,20.26l-0.58,6.31
	l5.73,7.56l0.58,6.39l-4.15,3.74l-13.54,1.08l-48.5-12.21l-29.4,4.24l2.16,6.31l10.21-0.42l4.15,0.75l-0.17,5.65l-5.9,1.33
	l-7.72-1.08l-20.26,5.23l-6.98,0.5l-2.16,2.99l2.49,4.24l5.23,1.16l4.9-1.41l5.65-2.49l5.81-0.25l12.29,0.5l20.51,5.56l16.36,7.39
	l1.49,3.57l-1.66,2.74l-7.72,2.74l-4.65,2.16l-36.21,23.09l-44.1,22.59l-36.62,3.49l-5.48,1.49l-3.16,6.64l-2.49,7.22l-2.74,4.98
	l-13.7,21.92l-4.48,5.65l-0.42,6.56l0.42,18.85l5.98,5.31l5.23,2.74l6.23-0.5l37.12-12.37l6.23,0.25l1.41,3.99l-1.41,3.74
	l-5.23,2.74l-27.74,9.38l-2.33,3.9l-0.42,4.24l3.9,3.49l8.3,1.08h6.64l17.52-2.49l13.12-6.98l8.72-1.74l7.47-1.49l5.65,1.83
	l16.44,0.66l6.64,3.9l24.08,5.15l7.39,1.08l11.46-1.99l14.53,1l6.39,2.49l3.49,5.9l-5.98,28.07l-18.6,51.57l-39.11,54.39
	l-41.02,39.36l-5.07,16.61l-7.06,8.39l-36.46,25.49l-14.03,7.14l-15.36,18.52l-6.39,3.99l-8.97,4.48l-5.81-1.33l-63.86-32.8
	l-39.2-31.31l-15.94-5.73l-14.03-2.57l-17.94,3.82l-23.75,14.78l-24.25,67.27l-0.75,18.6l-14.03,45.34l-8.3,16.03l-4.48,15.94
	l-2.66,19.85l-11.63,26.16l-1.16,53.73l-3.16,11.63l1.83,10.13l-0.75,16.61l5.81,13.37l4.48,3.16l8.3-2.57l18.69-20.26l9.55-15.45
	l3.82-12.71l-15.36-66.69l2.57-24.33l6.39-19.68l16.69-22.51l8.22-0.75l3.9-2.41l17.94-18.6l4.57-16.61l2.41-19.27l4.48-5.65
	l4.48-1.33l5.73,1.91l8.3,4.48l29.4,37.04l21.84,18.6l10.21,4.48l3.16,6.39l-3.16,3.16l-65.19-11.46h-36.54l-21.18,15.94
	l-8.97,15.36l-6.81,17.44l-0.75,12.79l3.9,23l8.97,29.4l21.01,92.76l3.9,25.49l3.74,8.97l18.69,16.69l10.13,15.36l7.06,18.02
	l10.88,15.86l15.94,15.45l11.63,7.06l7.64,0.58l6.39-1.83l8.22-16.69l2.66-10.8v-25l-3.07-7.06c-0.58,0-0.58-4.57-0.58-5.15
	l-1.33-4.48l-14.78-17.27l-17.85-7.72l-6.48-1.99l-1.16-10.88l0.58-6.89l-12.12-14.12l-7.72-17.85l-11.63-49.16l-8.8-18.6
	l-3.16-22.42l5.07-13.54l8.97-5.07h6.98l10.3,8.97l14.78,8.89l52.4,23.67l17.94,10.3v9.63l16.53,9.55l21.18,7.14h44.18l-3.16,8.3
	l-1.91,4.48l16.53,26.82l38.37,40.19l51.57,41.77l47.67,25.49l50.41,35.13l20.84,17.69l21.76,29.4l1,12.29l4.9,12.71l13.37,9.55
	l12.12,4.82l7.47-1l14.53-14.95l1.99-12.29l10.13-17.52l4.82-40.11l3.4-7.39l6.81-3.32h6.48l0.42,4.9l-4.82,5.23l-7.39,18.27
	l-1.16,26.57l-2.57,9.14l-29.4,50.66l-6.23,25.08l-3.16,26.24l3.16,29.32l4.15,17.11l33.22,70.01l13.87,21.84l16.53,20.35l3.16,6.89
	v4.82l-2.16,5.98l-33.63,46.34l-35.79,39.03l-22.51,10.13l-8.97,8.64l-4.82,9.63l-37.79,42.19l-9.14,15.86l-8.55,29.4l0.58,10.71
	l6.39,6.81l33.63-1l24.5-12.71l2.24-5.4h4.82l7.39-3.24l6.98-6.48l3.74-25.58l-2.16-5.31l-1-5.31l3.74,1.08l4.15,1.16l4.4-3.16
	l6.89-4.4l16.53-22.51l4.73-11.71l1.08-9.55l5.9-4.4l15.53-8.97l5.73-11.79l35.38-34.13l35.21-21.51l4.24-4.15l1.66-4.4l3.74-4.82
	l-2.57-6.39l-2.91-22.67l-2.74-6.39l-20.6-31.72l-1-22.51l7.97-27.24l5.98-9.55l6.31-3.74l44.35-35.21l39.03-43.35l25-47.92
	l5.4-18.27l2.57-29.81l4.32-4.24l4.82-1.16l4.24,2.74l3.74,8.89l2.74,24.08l-2.16,46.51l3.16,20.76l3.82,5.31l3.16-0.42l1.58-3.82
	l-2.16-8.55v-14.53l4.4-12.12l4.15-29.98l2.74-5.73h3.24l2.57,2.57l4.82,19.85l-4.15,36.21l-18.85,39.7l-5.31,16.53v21.92
	l3.82,11.29h6.98l3.57-4.98l-1.99-5.31l-1.58-9.55l39.94-64.03l7.97-43.27v-24.5l-4.82-17.11l-9.55-13.29l-1.16-6.39l4.32-2.08
	l5.31,2.57l15.61,24.08l5.81,41.85l5.31,16.69l0.58,0.42l7.39,16.53l4.82,1.74l2.16-4.32l-0.58-2.66l-3.65-12.21v-30.48l3.24-30.39
	l-1.16-8.55l-15.94-29.4l2.57-4.82l10.13-2.08l28.82-14.37l13.37-11.79l17.11-23l17.69-37.37l3.16-55.47l-15.94-105.14l6.39-35.79
	l8.97-19.68l12.87-20.26l4.82-12.87l1-6.39L1777.42,1340.52L1777.42,1340.52z M1051.27,954.11l-4.15,4.15l-5.98,3.32l-7.97,1.74
	l-2.74-1.74l-1-5.65l2.33-7.97l5.65-7.89l4.65-2.33l4.24,0.42l5.07,4.24l2.33,3.74L1051.27,954.11L1051.27,954.11z M1072.2,948.79
	l-1.49,0.75l-2.82,0.17l-2.41-1.16l-1.83-2.16l0.25-2.66l2.16-3.49l1.74-1.16h2.33l2.08,0.5l0.75,2.16l0.25,3.74L1072.2,948.79
	L1072.2,948.79z M1097.94,972.55l-2.16,1.08h-2.74l-1.58-0.91l-0.83-2.33l0.25-2.82l1.66-1.74l1.99-0.08l2.16,0.58l1,1.58l0.66,2.57
	L1097.94,972.55L1097.94,972.55z M1147.36,897.8l-3.32,0.91l-4.07,1l-4.48,3.74l-10.05,6.06l-30.56,6.56l-4.15-0.5l6.64-5.65
	l36.37-17.02l5.31-2.57l4.07-0.58l3.32,0.75l2.66,4.24L1147.36,897.8L1147.36,897.8z M774.23,1498.39l-4.32-1l-2.16-4.24l4.32-2.16
	l3.74,0.42l1,3.82L774.23,1498.39L774.23,1498.39z M830.37,1274.42l-6.98,24.08l-6.98,10.71l-3.74,1l-1.33-2.82v-5.65l3.49-22.26
	l6.15-10.55l3.16-3.74l4.65-1.41l1.74,2.66L830.37,1274.42L830.37,1274.42z M861.18,1231.9l-6.98,2.66l-6.64,0.66l-4.07-1.58
	l-1-2.91l1.16-3.9l3.49-2.41l7.22-0.91l3.74-0.33l2.57,0.75l2.33,2.16l0.17,2.41L861.18,1231.9L861.18,1231.9z M917.82,1308.3
	l-1.49,0.17l-3.4-2.16l-4.98-2.74l-4.24-3.49l-3.9-3.9l-1.74-2.16l-0.42-3.16l0.83-1.66l1.49,0.17l2.49,0.42l2.74,2.49l3.24,2.82
	l5.07,3.07l3.07,3.65l1.83,2.74l0.17,2.41L917.82,1308.3L917.82,1308.3z M822.65,1384.37l-2.57,3.65l-2.57,1l-1.74-1.49l0.08-5.15
	l4.4-7.56l1.33-2.16l2.16-1l2.08,1.33v4.32l-1.33,3.07L822.65,1384.37L822.65,1384.37z M840.75,1518.98l-0.91,1.33h-1l-1.83-1.66
	l-1.49-2.74l-2.33-5.07l-3.32-6.73l-5.07-20.26l1.33-22.67l0.91-1.33h1.58l1.66,1.49l1.58,6.81l0.17,6.98l9.55,39.94L840.75,1518.98
	L840.75,1518.98z M905.45,1642.31l1.74-0.42l4.15,0.91l1.91,1.99l0.42,2.41l-0.42,2.91l-2.49,1.83l-3.07-0.58l-2.16-1.99l-0.83-4.57
	L905.45,1642.31L905.45,1642.31z M947.22,1447.15l-4.32,0.25l-5.65-0.91l-3.9-1.74l-28.24-18.44l-3.49-2.57l4.65-0.17l5.07,1.83
	l25.91,10.13l6.64,3.07l3.49,3.16l0.58,2.91L947.22,1447.15z M995.55,1322.17l-11.46,33.47l-9.47,11.79l-4.73,3.65l-5.07,1.83
	l-2.91-1.99l-0.25-3.82l3.99-4.32l9.55-18.77l6.06-22.17l5.65-10.55l3.82-5.4l3.16-0.83l2.91,1.16l0.83,3.49L995.55,1322.17z
	 M1227.91,983.26l4.82-6.06l5.48-5.15l4.9-3.32l3.65-0.42l2.49,1.66v4.48l-1.33,4.98l-12.04,9.3l-6.64,1.74l-3.24-1.08l-0.33-2.66
	L1227.91,983.26L1227.91,983.26z M1208.48,870.9l4.65-1.58l3.24-1.49l3.99,1.41l1.33,2.91l-2.99,3.49l-4.15,1.66l-5.15,0.25
	l-1.91-3.49L1208.48,870.9L1208.48,870.9z M1168.2,908.43l-1.83-5.15l2.74-5.56l6.06-5.15l9.72-0.42l7.06,1.33l5.56,3.74l2.74,6.56
	l2.33,6.98l-0.42,5.98l-6.06,2.41h-6.56l-14.78-6.98L1168.2,908.43L1168.2,908.43z M1183.73,984.67h-7.39l-1.33-2.49l1.83-2.57
	l2.24-1.33l23.34-15.78l5.31-3.32h1.91l0.25,3.9l-3.57,2.82l-1.66,5.9l-4.57,6.98L1183.73,984.67L1183.73,984.67z M1095.54,1247.59
	l-1-1.58l0.25-3.9l2.57-2.91l28.07-9.72l30.56-2.33l9.55,1.99l8.97,4.57l7.06,6.98l0.42,3.9l-0.75,2.74l-3.07,0.58l-4.57-0.58
	l-7.06-1.99l-6.64-1.99l-43.43,1.16l-6.89,1.74l-6.64,1.49l-4.32,0.33L1095.54,1247.59L1095.54,1247.59z M1215.7,1640.9
	l-72.58-49.66l-37.87-34.88l-4.24-6.56l-1.58-7.81l0.25-7.22l2.74-2.74l4.82,0.25l15.61,12.29l33.72,38.12l59.63,53.23l1.83,2.99
	l1.33,2.16L1215.7,1640.9L1215.7,1640.9z M1222.35,1309.63l-3.07,1.74l-7.39,0.08l-4.9-1.16l-2.74-3.65l-2.41-2.82v-4.73l3.57-4.65
	l5.48-4.32l5.23-0.75l4.82,1.33l1.41,2.57l0.58,5.73l0.75,6.06L1222.35,1309.63L1222.35,1309.63z M1236.96,1070.87l-9.88,28.98
	l-19.27,33.88l-16.19,22.75l-12.29,12.87l-8.55,3.32l-2.74-0.17l-0.5-2.16l2.66-6.06l40.28-75.32l12.87-20.68l6.64-6.31l5.07-0.91
	l2.16,3.57L1236.96,1070.87L1236.96,1070.87z M1266.61,993.47l-1.58,3.9l-5.65,6.64l-15.7,6.98l-8.06,0.17h-5.07l-1.74-2.33
	l1.91-3.32l4.48-1.99l16.78-9.3l4.24-2.99l6.39-3.07l3.99,0.91V993.47L1266.61,993.47z M1309.05,1237.88l-2.91,0.83l-3.74-0.25
	l-2.49-2.49l0.58-2.08l2.49-1.74l3.74-0.25l3.24,2.57l0.08,2.16L1309.05,1237.88L1309.05,1237.88z M1313.45,1223.76h-4.4l-2.24-1.33
	v-3.24l1-2.16l2.33-0.75h3.07l2.91,1.91l0.25,2.24L1313.45,1223.76L1313.45,1223.76z M1321.42,1201.83l-2.91,1.49l-3.07,0.42
	l-3.16-0.75l-1-2.16v-2.57l2.57-1.83l3.24-0.58h3.07l1.83,1.58l0.42,2.49L1321.42,1201.83L1321.42,1201.83z M1325.49,1183.4
	l-3.9,1.16l-4.4-0.17l-2.33-1.58l-0.17-1.74l0.75-2.57l3.49-1.58l3.74-0.66l3.24,1.66l1.16,2.99L1325.49,1183.4L1325.49,1183.4z
	 M1334.87,1157.65l-2.16,2.91l-1.99,2.57l-4.07,0.83h-4.07l-3.49-1.74l-0.33-2.74l2.49-2.57l1.91-2.16l2.74-1l4.48-1.33h3.49
	l1.58,1.91L1334.87,1157.65z M1340.69,1136.06l-1.91,2.99l-3.32,0.58l-3.49,0.91l-4.32-0.17l-1.91-2.16l0.25-3.16l1.49-2.16
	l2.91-1.99l4.48-0.66l4.07,0.91l1.74,2.41V1136.06L1340.69,1136.06z M1346.83,1120.12l-4.57,1.83l-3.49,1.25h-4.32l-1.74-0.33
	l-2.16-0.75l-1.16-2.16l0.58-2.74l2.91-2.57l2.49-1.33l2.74-1.16l3.9-0.17l3.74,1.33l1.58,3.07L1346.83,1120.12L1346.83,1120.12z
	 M1347.33,1095.37l-1.58,2.57l-2.74,2.24l-4.07,1.49l-4.82,0.5l-3.9-0.66l-1-2.24l0.58-1.83l1.58-1.25l6.98-3.57l3.32-0.75
	l4.07,0.42l1.58,1.49V1095.37L1347.33,1095.37z M1336.37,1036.66l1.33-0.91l0.58-2.57l0.5-2.08l1.16-1.49l2.16-0.08l2.57,0.75
	l2.33,1.33l0.25,2.74l-0.25,4.48l-3.49,2.99l-4.4,2.24l-1.91-0.25l-1.91-0.75l-1.91-2.41l-0.25-2.57l0.75-1.49h2.49L1336.37,1036.66
	z M1333.88,1018.05v-2.08l1.91-1.99l2.99-1.08l3.65-0.17l2.16,0.66l0.58,1.83l-1.16,1.99l-1.91,2.08l-2.99,0.66h-3.24
	L1333.88,1018.05L1333.88,1018.05z M1334.04,1076.77l2.57-1.66l3.07-0.75l3.07-0.25l2.16,0.17l0.83,1.33v2.08l-1,2.41l-1.99,2.33
	l-5.15,2.16l-2.49-0.25l-2.33-0.75l-0.58-2.41l0.42-2.74L1334.04,1076.77L1334.04,1076.77z M1347,1058.91l-0.66,1.91l-3.16,2.16
	l-4.4,1.66l-2.41-0.58l-2.33-1.41l-0.5-2.24l0.25-2.91l1.74-1.74l2.49-1.74l3.57-0.75l3.07-0.08l2.08,0.58l0.66,1.99L1347,1058.91
	L1347,1058.91z M1348.24,997.63l-0.42,2.49l-1.66,2.24l-2.66,0.91l-2.41,0.58l-2.16,0.33l-2.91-0.33l-0.75-1.66l0.75-2.33l1.74-1.58
	l1.83-1.08l3.16-2.16l3.4,0.17L1348.24,997.63z M1343.68,976.37l1.74,1l0.25,2.49l-0.08,2.24l-2.82,2.49l-2.57,1l-1.66-0.25
	l-1.33-0.66v-2.41l0.17-2.41l1.91-1.99l1.74-1.08L1343.68,976.37L1343.68,976.37z M1340.35,964.32l-0.66,2.66l-1.91,1.33l-1.74,1.08
	l-2.33,0.33l-1.91-1.25l-0.42-1.99l0.91-1.74l1.74-2.33l1.74-0.83l2.33-0.17l1.83,1.16L1340.35,964.32L1340.35,964.32z
	 M1316.6,917.57l4.24-0.25l5.9-2.33l5.4-1.25l4.48-0.33l2.33,2.16l-3.16,4.82l-3.24,0.91l-5.4,1.83l-6.89,3.9l-6.64,3.49l-7.72,3.24
	l-2.57,0.25l-2.16-0.66l0.25-3.24l-1.16-3.07v-5.48l2.49-6.23l3.49-3.74l2.16-2.91l2.33-2.82h3.49l2.49,2.41l-0.66,6.06
	L1316.6,917.57L1316.6,917.57z M1314.11,859.85l1.58,1.08l-0.5,1.49l-2.33,2.74l-3.24,0.33l-3.74-0.58l-2.16-1l-1.66-1.91l1.91-1.58
	l2.74-1.16l4.15-0.17L1314.11,859.85L1314.11,859.85z M1294.18,837.35l7.22-0.75l3.9,1.33l3.07,1.66l0.17,2.57l-2.66,1.25
	l-3.99,0.17l-3.99-0.17l-2.99-0.66l-2.66-1.91L1294.18,837.35L1294.18,837.35z M1350.24,1589.91l-3.49,3.16l-3.24,3.65l-3.16,6.64
	l-1,4.65l-2.16,1.74l-4.15-0.58l-1.99-2.41l3.07-19.85l1.16-6.06l2.74-7.72l1.99-2.24l3.07-0.66h4.07l1.74,1.66l3.07,4.57l0.58,8.55
	L1350.24,1589.91L1350.24,1589.91z M1338.94,1475.55l-25.49-25.08l-14.53-18.27l-12.79-20.76l-10.13-25.66l-4.24-17.69l1.99-10.13
	l5.73-1.66l5.98,2.74l12.79,42.19l35.38,53.4l23.42,30.39L1338.94,1475.55L1338.94,1475.55z M1354.39,1808.07l-1.99,5.48l-6.73,18.6
	l-0.83,2.91l-1,1.83h-2.74l-2.16-6.56l-0.17-7.39l5.23-24l11.29-15.28l4.82-0.58l1.33,4.32L1354.39,1808.07L1354.39,1808.07z
	 M1379.64,1948.33l-1,0.17l-1.83-0.91l-3.49-5.15l-5.23-8.55l-2.49-5.56l-1.49-7.81v-7.31l0.25-4.32l1.08-1.33h2.33l2.41,1
	l3.24,3.82l2.33,6.48l1.58,8.64l0.17,6.98l0.08,2.41l1.33,3.4l1.33,6.64L1379.64,1948.33L1379.64,1948.33z M1272.51,2198.88
	l-2.16,4.24l-2.57,3.9l-4.24,2.74l-4.07,0.91h-1.66l-1.83-1.49l-0.58-3.07l0.75-3.74l2.16-4.4l5.9-5.9l4.48-2.74l3.24-0.17
	l1.58,1.33l0.42,3.07L1272.51,2198.88L1272.51,2198.88z M1312.29,2134.77l-2.16,3.07l-2.74,1.58l-3.32,1.25l-2.49-0.75l-1.49-2.57
	l0.33-2.66l2.41-2.99l4.98-2.99l3.57-0.66l1.74,1.08l0.42,2.57L1312.29,2134.77L1312.29,2134.77z M1400.98,2046.41l-14.95,19.43
	l-37.12,35.63l-4.24,2.74l-2.74-0.17l-1.33-2.08l0.58-3.65l48.33-50.99l3.74-4.07l5.65-3.65l1.99,0.5l1.74,2.16L1400.98,2046.41
	L1400.98,2046.41z M1437.93,2017.84l2.49-0.83l3.16,0.08l1.49,0.75l0.17,1.66l-1.33,1.99l-2.91,2.57l-2.57,2.91h-1.74l-1.99-1.16
	l-0.42-2.49l0.83-2.41L1437.93,2017.84z M1544.81,1726.18l-0.58,4.82l-1.49,4.48l-0.91,4.07l-2.91,1.74l-2.74-0.75l-1.49-2.66
	l-0.91-9.05l-6.06-8.47l-0.58-6.89l3.49-4.4l3.57-1.16l3.49,0.25l2.91,2.57l3.32,4.24l0.91,4.82L1544.81,1726.18L1544.81,1726.18z
	 M1725.19,1560.59l-0.25,6.81l-10.88,38.78l-13.95,22.59l-23.92,25.25l-6.56,1.66l-3.49-1.66l-0.58-4.65l2.74-6.23l31.72-47.83
	l8.3-22.01l3.74-39.78l-3.32-36.21l-0.75-6.81l3.74-3.82l2.41,1.33l1.91,5.9l8.89,39.36v27.32H1725.19z"/>
</svg>
