<?xml version="1.0" encoding="utf-8"?>
<!-- Generator: Adobe Illustrator 25.4.8, SVG Export Plug-In . SVG Version: 6.00 Build 0)  -->
<svg version="1.1" id="Layer_1" xmlns="http://www.w3.org/2000/svg" xmlns:xlink="http://www.w3.org/1999/xlink" x="0px" y="0px"
	 viewBox="0 0 2500 3000" style="enable-background:new 0 0 2500 3000;" xml:space="preserve">
<style type="text/css">
	.st0{fill:#1A377A;}
	.st1{fill:#CB9F18;}
	.st2{fill:#E3B80F;}
	.st3{fill:#DA442D;}
	.st4{fill:#C83E29;}
</style>
<path class="st0" d="M1274.03,2732.47c451.79-355.52,664.18-815.57,758.62-1177.34c96.64-370.4,111.34-726.28,110.97-739.14
	l-0.55-20.03l-14.88-12.31c-368.01-340.45-843.32-522.34-865.73-529.69l-11.94-4.04l-11.94,4.04
	c-22.42,7.35-486.15,189.42-865.91,529.87l-15.07,12.31l-0.55,20.03c-0.37,12.68,10.11,369.66,110.6,739.14
	c92.97,341.55,290.66,835.23,758.98,1177.34l23.52,17.27L1274.03,2732.47z"/>
<g>
	<path class="st1" d="M1251.07,588.35c-79,25.72-536.12,178.95-814.47,386.57c0.92,147.72,50.16,1105.86,814.47,1701.15
		c746.67-595.28,812.45-1553.43,813.37-1701.15C1785.9,767.49,1330.07,614.08,1251.07,588.35L1251.07,588.35z"/>
	<path class="st1" d="M1232.14,313.86l1.1,44.83c-16.54-11.57-39.13-17.82-65.04-17.82c-12.13,0-27.93,2.94-41.34,8.27l2.39,30.68
		c13.96-7.9,27.01-9.37,40.24-9.37c38.03,0,65.04,28.48,65.04,66.14c0,37.48-26.82,66.14-66.14,66.14
		c-14.51,0-31.42-2.57-40.24-7.17l-1.1,30.68c13.41,3.12,27.38,5.88,41.34,5.88c25.35,0,47.95-5.7,65.04-16.54l-1.29,40.24h36.75
		v-38.95c16.54,9.74,37.66,15.43,61.55,15.43c13.96,0,27.93-2.76,41.34-5.88l-1.1-30.68c-8.64,4.59-25.72,7.17-40.24,7.17
		c-39.32,0-62.65-28.66-62.65-66.14c0-37.85,23.52-66.14,61.55-66.14c13.23,0,26.09,1.47,40.24,9.37l2.39-30.68
		c-13.23-5.14-27.19-7.9-41.34-8.27c-24.44,0-45.2,6.25-61.55,16.54v-43.73h-18.92H1232.14z M1249.97,587.99v120.53l281.29-16.54
		C1438.66,653.95,1344.95,619.22,1249.97,587.99L1249.97,587.99z M1249.97,708.51V941.3l446.83-41.34l364.15,140.55
		c1.65-29.03,2.2-51.63,2.39-66.14c-41.52-30.87-87.09-60.26-134.86-88.56l-231.68,13.04L1249.97,708.51z M1249.97,941.48v234.07
		l446.83-59.16l343.94,120.53c8.64-59.53,13.23-112.07,16.54-154.88l-360.66,33.07L1249.97,941.48z M1249.97,1175.55v234.07
		l446.83-75.7l308.48,95.72c11.21-49.79,19.84-96.83,27.19-140.74l-335.67,42.63L1249.97,1175.55z M1249.97,1409.62v232.97
		l446.83-92.23l257.77,70.92c12.68-41.34,23.15-81.58,33.07-120.53l-290.84,48.5L1249.97,1409.62z M1249.97,1642.41v234.07
		l446.83-109.87l190.34,44.83c12.49-31.05,23.52-61.73,34.36-92.23l-224.7,46.12L1249.97,1642.41z M1249.97,1876.48v232.78
		l446.83-125.3l102.89,20.03c9.19-17.82,17.45-35.46,26.09-53.1l-128.79,30.68L1249.97,1876.48z M1249.97,2109.45v234.07
		l432.68-138.35c1.65-2.57,3.12-5.7,4.78-8.27L1249.97,2109.45z M1249.97,2343.52v234.07l185.57-67.43
		c37.85-38.22,74.23-78.08,108.77-119.42L1249.97,2343.52z M1249.97,2577.4v98.11c35.28-27.56,69.63-56.4,102.89-86.35
		L1249.97,2577.4z"/>
</g>
<path class="st2" d="M1249.97,587.99c-35.28,11.39-146.62,48.14-282.58,103.99l282.58,16.54V587.99z M1249.97,708.51L802.95,898.86
	l-231.68-13.04c-47.59,28.29-93.15,57.69-134.67,88.56c0,14.51-0.55,37.11,1.1,66.14l365.25-140.55l446.83,41.34L1249.97,708.51z
	 M1249.97,941.48l-447.01,173.81l-361.58-33.07c3.31,42.81,9,95.17,17.64,154.88l343.94-120.53l446.83,59.16L1249.97,941.48z
	 M1249.97,1175.55l-446.83,155.99l-336.96-42.63c7.35,43.91,17.27,90.76,28.29,140.55l308.48-95.54l446.83,75.7L1249.97,1175.55z
	 M1249.97,1409.62l-446.83,139.45l-291.95-49.61c9.92,39.13,21.5,80.29,34.36,121.81l257.77-70.92l446.83,92.23L1249.97,1409.62z
	 M1249.97,1642.41l-446.83,122.91l-225.8-46.12c10.84,30.68,22.97,60.81,35.46,92.23l190.34-44.83l446.83,109.87V1642.41z
	 M1249.97,1876.48l-446.83,105.28l-130.08-30.68c8.64,17.82,16.72,35.09,25.91,53.1l103.99-20.03l446.83,125.3L1249.97,1876.48z
	 M1249.97,2110.55l-438.56,86.35l4.78,7.17l433.78,139.45V2110.55L1249.97,2110.55z M1249.97,2343.52l-295.62,47.22
	c34.54,41.34,70.92,81.02,108.77,119.42l186.85,67.43L1249.97,2343.52L1249.97,2343.52z M1249.97,2577.4l-103.99,13.04
	c32.89,29.4,68.16,57.14,103.99,85.07V2577.4z"/>
<path class="st3" d="M968.49,692.35c-123.47,50.53-268.06,117.04-397.22,193.83l231.68,13.04l446.83-190.34L968.49,692.35z
	 M802.95,900.51L438.8,1041.25c0.73,12.49,1.29,26.46,2.39,41.34l361.76,33.07l446.83-173.81L802.95,900.51z M802.95,1116.76
	l-343.94,120.53c2.39,16.72,4.23,34.36,7.17,52l336.96,42.63l446.83-155.99L802.95,1116.76z M802.95,1334.29l-308.48,95.72
	c5.14,22.78,10.47,45.93,16.54,69.82l291.95,49.61l446.83-139.45L802.95,1334.29z M802.95,1550.54l-257.59,70.92
	c9.92,32.15,20.21,64.86,31.97,98.11l225.8,46.12l446.83-122.91L802.95,1550.54z M802.95,1766.98l-190.34,45.01
	c18.56,47.22,38.77,93.7,60.26,139.45l130.08,30.68l446.83-105.28L802.95,1766.98z M802.95,1984.51l-103.99,20.21
	c33.99,66.14,71.47,130.45,112.26,192.73l438.56-87.46L802.95,1984.51z M816,2204.25c42.44,64.86,88.56,127.32,138.35,186.67
	l295.62-47.22L816,2204.25z M1063.11,2510.53c26.82,27.01,53.65,54.2,82.68,80.47l103.99-13.04L1063.11,2510.53z"/>
<path class="st4" d="M1531.26,692.35l-281.29,16.54l446.83,190.34l231.68-13.04C1799.32,809.38,1654.72,743.05,1531.26,692.35
	L1531.26,692.35z M1696.8,900.51l-446.83,41.34l446.83,173.81l361.76-33.07c1.1-15.07,1.65-28.66,2.39-41.34L1696.8,900.51z
	 M1696.8,1116.76l-446.83,59.16l446.83,155.99l335.67-42.63c2.94-17.82,5.88-35.28,8.27-52L1696.8,1116.76z M1696.8,1334.29
	l-446.83,75.7l446.83,139.45l290.84-48.5c6.06-24.07,12.49-47.95,17.64-70.92L1696.8,1334.29z M1696.8,1550.54l-446.83,92.23
	l446.83,122.91l224.7-46.12c11.76-33.25,23.15-65.77,33.07-98.11L1696.8,1550.54z M1696.8,1766.98l-446.83,110.05l446.83,105.09
	l128.79-30.87c22.05-45.75,42.44-92.23,61.37-139.45L1696.8,1766.98z M1696.8,1984.51l-446.83,125.3l437.27,87.45
	c40.79-62.28,78.27-126.59,112.26-192.73L1696.8,1984.51z M1682.46,2205.54l-432.68,138.35l294.33,47.22
	C1593.91,2331.94,1640.02,2270.03,1682.46,2205.54z M1435.53,2510.53l-185.57,67.24l102.89,11.76
	C1381.15,2564.18,1408.71,2537.72,1435.53,2510.53z"/>
<path class="st1" d="M1249.97,314.05v242.34h18.92v-38.95c16.54,9.74,37.66,15.25,61.55,15.25c13.96,0,27.93-2.76,41.34-5.88
	l-1.1-30.68c-8.64,4.41-25.72,7.17-40.24,7.17c-39.32,0-62.65-28.66-62.65-66.14c0-37.85,23.52-66.14,61.55-66.14
	c13.23,0,26.09,1.47,40.24,9.37l2.39-30.68c-13.23-5.14-27.19-8.08-41.34-8.27c-24.44,0-45.2,6.25-61.55,16.54v-43.91H1249.97z"/>
<path class="st2" d="M1232.14,314.05l1.1,45.01c-16.54-11.57-39.13-17.82-65.04-17.82c-12.13,0-27.93,2.94-41.34,8.27l2.39,30.87
	c13.96-7.9,27.01-9.37,40.24-9.37c38.03,0,65.04,28.48,65.04,66.14c0,37.48-26.82,66.14-66.14,66.14c-14.51,0-31.42-2.57-40.24-7.17
	l-1.1,30.68c13.41,3.12,27.38,5.88,41.34,5.88c25.35,0,47.95-5.51,65.04-16.54l-1.29,40.24h17.82V314.05H1232.14z"/>
</svg>
