<?xml version="1.0" encoding="utf-8"?>
<!-- Generator: Adobe Illustrator 25.4.8, SVG Export Plug-In . SVG Version: 6.00 Build 0)  -->
<svg version="1.1" id="Layer_1" xmlns="http://www.w3.org/2000/svg" xmlns:xlink="http://www.w3.org/1999/xlink" x="0px" y="0px"
	 viewBox="0 0 2500 3000" style="enable-background:new 0 0 2500 3000;" xml:space="preserve">
<style type="text/css">
	.st0{fill:#F7DE9F;}
	.st1{fill:#F9CE5C;}
	.st2{fill:#D8A016;}
	.st3{fill:#9F6B08;}
	.st4{fill:#5C4B21;}
	.st5{fill:#282928;}
	.st6{fill:#040404;}
</style>
<path class="st0" d="M1188.47,2738.81c-35.29-19.82-136.08-97.33-216.13-166.19c-132.86-114.29-249.37-240.18-353.61-382.05
	c-224.33-305.34-363.06-660.53-423.71-1084.89c-28.95-202.48-40.17-485.31-21.77-548.42c11.64-39.95,38.15-77.16,71.65-100.6
	c36.22-25.35,151.91-70.98,255.68-100.85c219.9-63.32,462.77-93.64,750.98-93.79c367.41-0.18,668.11,48.86,921.8,150.33
	c90.58,36.23,124.07,62.21,150.22,116.46l17.2,35.65l-0.4,155.94c-1.13,433.34-98.87,854.6-277.12,1194.4
	c-45.43,86.61-152.83,254.12-205.97,321.26c-98.33,124.23-212,243.42-324.8,340.58c-76.17,65.6-188.89,151.12-220.13,167.01
	C1273.96,2763.21,1228.75,2761.44,1188.47,2738.81L1188.47,2738.81z M1264.69,2727.67c-5.9-1.56-15.53-1.56-21.43,0
	c-5.9,1.57-1.07,2.85,10.72,2.85C1265.77,2730.53,1270.59,2729.24,1264.69,2727.67z M1021.32,2573.68c0-1.29-4.82-6.22-10.72-10.91
	c-9.72-7.76-9.93-7.54-2.31,2.35C1016.29,2575.52,1021.32,2578.82,1021.32,2573.68L1021.32,2573.68z M984.58,2542.82
	c0-1.12-7.58-8.84-16.84-17.15l-16.84-15.12l14.84,17.16C979.62,2543.73,984.58,2547.71,984.58,2542.82L984.58,2542.82z
	 M898.86,2460.65c-21.69-22.3-40.82-40.54-42.5-40.54c-1.68,0,14.69,18.25,36.38,40.54c21.69,22.3,40.82,40.54,42.5,40.54
	S920.55,2482.95,898.86,2460.65z M807.02,2367.08c-21.69-22.3-40.82-40.54-42.5-40.54c-1.68,0,14.69,18.24,36.38,40.54
	c21.69,22.3,40.82,40.54,42.5,40.54C845.08,2407.63,828.71,2389.38,807.02,2367.08L807.02,2367.08z M751.9,2305.8
	c0-1.12-7.57-8.84-16.83-17.16l-16.84-15.12l14.84,17.16C746.96,2306.7,751.91,2310.69,751.9,2305.8L751.9,2305.8z M715.17,2262.02
	c0-1.19-6.2-7.5-13.78-14.04l-13.78-11.88l11.66,14.04C710.24,2263.32,715.17,2267.01,715.17,2262.02z M690.68,2230.82
	c0-1.19-6.2-7.5-13.78-14.04l-13.77-11.88l11.66,14.03C685.76,2232.14,690.68,2235.82,690.68,2230.82L690.68,2230.82z
	 M666.19,2199.44c0-1.29-4.82-6.22-10.72-10.91c-9.71-7.76-9.93-7.54-2.31,2.35C661.16,2201.26,666.19,2204.57,666.19,2199.44z
	 M647.82,2174.48c0-1.29-4.82-6.2-10.72-10.91c-9.71-7.75-9.93-7.54-2.31,2.36C642.8,2176.32,647.82,2179.62,647.82,2174.48z
	 M629.46,2149.54c0-1.29-4.82-6.22-10.72-10.91c-9.71-7.76-9.93-7.54-2.31,2.35C624.43,2151.36,629.46,2154.67,629.46,2149.54z
	 M543.74,2020.91c-3.6-6.86-7.93-12.48-9.61-12.48c-1.69,0-0.12,5.61,3.49,12.48c3.6,6.86,7.93,12.47,9.61,12.47
	S547.34,2027.77,543.74,2020.91z M525.36,1989.72c-3.6-6.86-7.93-12.47-9.61-12.47c-1.69,0-0.12,5.61,3.49,12.47
	c3.6,6.86,7.93,12.48,9.61,12.48C530.54,2002.19,528.97,1996.59,525.36,1989.72z M507,1958.53c-3.6-6.86-7.93-12.47-9.61-12.47
	c-1.68,0-0.12,5.61,3.49,12.47c3.6,6.86,7.93,12.48,9.61,12.48C512.17,1971.01,510.6,1965.4,507,1958.53z M450.59,1849.63
	c-17.52-35.89-32.83-64.24-34.02-63.02c-2.71,2.76,58.83,128.27,62.9,128.27C481.1,1914.87,468.1,1885.52,450.59,1849.63z
	 M397.54,1736c-7.22-12.64-8.96-8.59-3.06,7.09c2.1,5.57,5.11,8.82,6.68,7.22C402.74,1748.71,401.12,1742.28,397.54,1736
	L397.54,1736z M985.72,656.89c-4.42-1.79-9.7-1.58-11.73,0.5c-2.03,2.07,1.58,3.54,8.04,3.27
	C989.16,660.36,990.61,658.88,985.72,656.89L985.72,656.89z M215.45,539.2c2.09-5.55,1.06-8.06-2.4-5.87
	c-3.33,2.1-6.06,6.45-6.06,9.68C206.98,551.98,211.37,550.01,215.45,539.2L215.45,539.2z M2300.98,543.34
	c0-3.05-5.72-12.18-12.69-20.27l-12.69-14.72l10.95,20.27C2297.9,549.63,2300.97,552.77,2300.98,543.34L2300.98,543.34z
	 M851.02,451.05c-4.42-1.8-9.7-1.58-11.73,0.49c-2.04,2.07,1.58,3.55,8.04,3.28C854.46,454.52,855.91,453.05,851.02,451.05z
	 M1116.22,442.84c6.09-6.86,9.7-12.47,8.01-12.47c-1.69,0-8.04,5.61-14.14,12.47c-6.09,6.86-9.7,12.47-8.02,12.47
	S1110.12,449.7,1116.22,442.84z M961.23,438.58c-4.42-1.8-9.7-1.58-11.73,0.49s1.58,3.55,8.04,3.28
	C964.67,442.05,966.12,440.58,961.23,438.58L961.23,438.58z M1695.97,320.07c-4.42-1.8-9.7-1.58-11.73,0.49
	c-2.03,2.08,1.58,3.55,8.04,3.28C1699.4,323.54,1700.86,322.06,1695.97,320.07z M1646.98,313.83c-4.42-1.8-9.7-1.58-11.73,0.49
	c-2.04,2.07,1.58,3.54,8.04,3.27C1650.42,317.3,1651.87,315.82,1646.98,313.83z M1598.39,307.72c-4.21-1.73-11.1-1.73-15.32,0
	c-4.2,1.73-0.76,3.14,7.65,3.14C1599.16,310.86,1602.6,309.45,1598.39,307.72z M991.85,301.36c-4.42-1.8-9.7-1.58-11.73,0.49
	c-2.03,2.07,1.58,3.54,8.04,3.27C995.28,304.82,996.73,303.34,991.85,301.36z M1527.86,301.29c-5.96-1.58-14.23-1.47-18.36,0.23
	c-4.15,1.71,0.72,3.01,10.82,2.87C1530.42,304.27,1533.81,302.88,1527.86,301.29L1527.86,301.29z M1108.45,294.86
	c-11-1.39-27.54-1.36-36.74,0.06s-0.19,2.56,20.01,2.53C1111.93,297.42,1119.46,296.25,1108.45,294.86z M1432.96,294.86
	c-11-1.39-27.54-1.36-36.74,0.06s-0.2,2.56,20.01,2.53C1436.44,297.42,1443.97,296.25,1432.96,294.86z"/>
<path class="st1" d="M1196.43,2741.27c-109.62-58.64-365.73-290.72-498.93-452.15c-338.99-410.81-508.12-907.18-531.08-1558.63
	c-5.69-161.41,4.84-203.24,65.01-258.36c76.87-70.41,379.61-157.98,649.06-187.73c500.39-55.27,980.76-3.39,1323.86,142.98
	c95.9,40.92,133.11,95.39,138.16,202.22c3.31,70.09-7.56,279.6-20.34,392.18c-78.74,693.43-363.54,1218.34-884.1,1629.42
	c-109.09,86.16-135.07,101.43-176.85,103.98C1233.08,2756.9,1220.69,2754.23,1196.43,2741.27L1196.43,2741.27z M1337.8,2694.69
	c198.01-136.86,402.07-339.46,549.75-545.81c195.44-273.09,324.3-596.8,388.61-976.26c37.72-222.52,53.71-543.3,30.94-620.63
	c-13.41-45.53-54.7-78.14-144.54-114.15c-261.74-104.91-619.87-158.99-985.12-148.74c-332.17,9.32-600.43,57.26-830.53,148.4
	c-65.78,26.05-82.48,35.56-111.08,63.22c-32.97,31.89-33.83,33.6-41.34,82.74c-8.86,57.96-0.64,281.57,15.71,426.99
	c79.41,706.2,369.6,1232.85,906.44,1645.02c84.17,64.63,105.64,76.51,138.17,76.51C1280.2,2731.97,1290.64,2727.28,1337.8,2694.69
	L1337.8,2694.69z M1192.63,2699.8c-28.52-17.67-108.97-79.8-171.31-132.32c-333.26-280.66-562.93-622.27-694.86-1033.51
	c-50.75-158.19-88.94-344.17-110.15-536.38c-10.27-93.04-22.37-359.81-17.66-389.47c7.47-47.09,7.72-47.56,21.4-40.1
	c19.44,10.6,28.13-1.95,15.23-22.02c-7.95-12.35-8.78-18.84-3.65-28.58c33.52-63.81,340.29-161.41,615.21-195.73
	c132.83-16.58,237.13-22.29,407.81-22.3c329.73-0.03,578.44,35.02,816.75,115.12c107.71,36.2,172.64,65.15,190.02,84.72
	c10.83,12.19,10.86,13.52,0.61,31.2c-13.41,23.12-8.91,30.92,17.79,30.92c22.2,0,21.77-0.71,29.94,48.98
	c5.03,30.62-7.34,302.3-18.22,400.12c-50.15,450.82-190.76,834.9-421.71,1151.97c-136.07,186.8-345.12,393.05-529.45,522.36
	l-43.86,30.76l-9.85-14.32c-8.36-12.16-13.61-13.8-34.82-10.91c-13.73,1.88-28.03,7.66-31.75,12.86
	C1214.11,2711.47,1210.82,2711.07,1192.63,2699.8L1192.63,2699.8z M1060.67,1923.78c10.77-10.98,12.88-27.63,3.5-27.63
	c-3.36,0-6.13,2.76-6.13,6.12c0,3.36-6.89,7.88-15.3,10.03c-15.33,3.91-18.87,9.32-11.22,17.11
	C1038.4,1936.43,1050.57,1934.08,1060.67,1923.78L1060.67,1923.78z M898.85,1842.78c0-1.51-2.76-2.76-6.12-2.76s-6.13,2.98-6.13,6.6
	c0,3.64,2.76,4.87,6.13,2.76C896.1,1847.26,898.86,1844.29,898.85,1842.78L898.85,1842.78z M1326.73,1789.88
	c-10.28-17.02-19.68-30.94-20.87-30.94c-1.19,0,5.24,15,14.29,33.35c9.06,18.33,18.46,32.27,20.87,30.95
	C1343.44,1821.91,1337,1806.91,1326.73,1789.88z M1428.47,1684.1c2.18-3.59-2.12-5.58-10.13-4.68
	c-10.98,1.22-14.76-2.38-18.01-17.16c-3.81-17.46-4.13-17.64-4.81-2.81C1394.43,1683.52,1418.09,1701.22,1428.47,1684.1
	L1428.47,1684.1z M1290.13,1588.22c27.56-5.3,37.33-14.38,37.33-34.69c0-18.25-17.82-48.99-18.18-31.36
	c-0.11,5.29-12.37,21.78-27.24,36.65s-28.46,32.56-30.19,39.3c-2.82,10.98-2.08,11.32,7.14,3.19
	C1264.65,1596.31,1278.66,1590.43,1290.13,1588.22L1290.13,1588.22z M1486.5,1578.19c-40.56-5.33-54.63-12.38-75.72-37.91
	c-26.26-31.79-19.02-68.32,16.66-84.13l19.41-8.61l-21.8-0.24c-64.2-0.72-65.24,89.63-1.42,123.95
	c16.27,8.75,34.22,12.32,59.95,11.94l36.74-0.54L1486.5,1578.19L1486.5,1578.19z M1657.6,1518.78c-0.26-6.86-1.87-8.96-3.57-4.67
	c-1.7,4.29-8.38,7.79-14.82,7.79c-6.46,0-11.74,2.11-11.74,4.68s6.89,4.67,15.31,4.67
	C1654.17,1531.26,1657.96,1528.07,1657.6,1518.78L1657.6,1518.78z M1005.76,1482.64c10.24-15.97,25.06-30.88,32.94-33.13
	c16.75-4.77,58.08,7.34,82.06,24.05c24.08,16.78,55.3,20.8,65.38,8.42c4.47-5.48,15.36-10.06,24.21-10.16
	c15.47-0.19,15.63-0.55,4.2-9.36c-7.38-5.68-25.97-9.2-48.98-9.25c-45.03-0.12-64.69-9.34-77.19-36.26l-9.49-20.42l-11.61,13.07
	c-16.45,18.52-35.91,13.98-39.91-9.32l-3.21-18.71l-18.93,28.07c-26.81,39.77-39.02,65.68-39.02,82.86
	C966.21,1525.46,980.6,1521.87,1005.76,1482.64L1005.76,1482.64z M1374.9,1410c6.27-1.49-0.72-42.8-10.57-62.46
	c-9.22-18.43-16.87-25.14-32.14-28.21c-60.23-12.13-75.12-30.67-69.56-86.66c4.22-42.64,3.81-43.64-28.97-68.52
	c-12.85-9.77-26.38-24.49-30.06-32.71c-8.75-19.58-17.58-18.88-59.68,4.7c-49.39,27.65-53.94,37.25-31.49,66.29
	c9.97,12.89,19.8,35.01,22.12,49.73c2.33,14.8,7.55,26.51,11.83,26.51c11.31,0,21.87,28.07,21.87,58.1
	c0,22.19,4.22,31.24,26.9,57.65l26.9,31.33l75.66-7.68C1339.34,1413.83,1374.06,1410.2,1374.9,1410L1374.9,1410z M1507.74,1362.56
	c-8.3-22.46-23.43-73.69-33.63-113.84c-10.78-42.41-30.23-97.16-46.44-130.69c-26.47-54.74-34.16-64.48-41.43-52.49
	c-4.04,6.67,28.07,87.29,51.17,128.52c9.73,17.37,24.96,61.04,33.84,97.07c9.31,37.71,22.84,75.42,31.92,88.88
	c8.66,12.87,16.64,23.39,17.71,23.39C1521.96,1403.4,1516.04,1385.02,1507.74,1362.56L1507.74,1362.56z M1362.66,1039.61
	c-31.74-26.47-15.62-45.94,23.16-27.94c12.37,5.74,15.43,10.88,13.29,22.3c-1.79,9.58-0.68,12.69,3.14,8.79
	c11-11.2,1.9-29.13-20.42-40.25c-40.12-19.98-60.7,3.55-29.27,33.45c10.48,9.98,20.82,18.03,22.99,17.91
	C1377.72,1053.75,1371.92,1047.33,1362.66,1039.61L1362.66,1039.61z M1618.59,1001.28c4.88-11.89,8.86-28.03,8.84-35.86
	c-0.02-19.08-20.46-52.21-37.91-61.47l-14.11-7.48l13.01,14.87c28.51,32.61,33.81,60.93,17.45,93.17
	c-5.79,11.41-6.83,18.39-2.76,18.39C1606.76,1022.91,1613.72,1013.18,1618.59,1001.28L1618.59,1001.28z M1169.4,854.33
	c-27.13-16.86-25.22-40.19,4.98-60.9c17.17-11.78,27.81-14.29,53.58-12.69c21.92,1.39,32.15-0.33,32.15-5.4
	c-0.01-4.1,13.07-11.66,29.08-16.83l29.08-9.4l-36.74,3.27c-56.25,5.02-96.17,18.57-122.18,41.47
	c-19.95,17.57-22.99,23.39-19.53,37.46c2.26,9.16,11.64,20.82,20.86,25.92C1185.81,871.1,1192.71,868.81,1169.4,854.33
	L1169.4,854.33z M365.3,700.14c-2.04-122.5-1.97-123.23,11.66-129.35c20.37-9.16,16.59-16.05-4.67-8.5l-18.37,6.52v127.26
	c0,88.11,2.06,127.25,6.71,127.25C365.35,823.32,366.74,786.57,365.3,700.14L365.3,700.14z M1375.42,817.86
	c6.34-4.1,5.61-5.96-3.24-8.32c-6.28-1.67-14.88,0.74-19.12,5.37c-6.28,6.85-5.68,8.4,3.24,8.32
	C1362.32,823.18,1370.92,820.76,1375.42,817.86z M2134.25,568.19c9.4,3.61,14.03,3.83,10.59,0.49c-3.36-3.27-12.32-7.84-19.89-10.17
	l-13.78-4.24l1.4,129.84l1.4,129.86l1.79-126.11l1.79-126.11L2134.25,568.19L2134.25,568.19z M473.32,753.18
	c4.01-4,0.83-4.53-9.18-1.54c-23.94,7.14-55.1,20.83-55.1,24.21C409.04,780.42,466.24,760.25,473.32,753.18L473.32,753.18z
	 M532.06,633.74c26.06-114.9,27.19-118.06,45.22-126.07l18.5-8.2l-16.09-0.24c-8.84-0.13-18.85,3.26-22.22,7.55
	c-6.09,7.75-63.08,247.32-62.33,262.06C495.97,785.15,506.3,747.32,532.06,633.74L532.06,633.74z M2020.06,744.26
	c-7.2-12.65-8.95-8.6-3.04,7.08c2.1,5.58,5.11,8.82,6.68,7.22C2025.28,756.95,2023.65,750.53,2020.06,744.26L2020.06,744.26z
	 M1936.62,506.73c8.24,1.6,13.52,0.51,11.75-2.42c-1.78-2.94-9.97-5.33-18.19-5.33h-14.95l1.4,126.31l1.4,126.31l1.79-123.9
	l1.79-123.89L1936.62,506.73L1936.62,506.73z M613.81,714.5c-2.31-12.51-5.58-21.35-7.25-19.63c-1.67,1.72-1.18,13.36,1.13,25.88
	c2.3,12.52,5.57,21.35,7.24,19.64C616.6,738.67,616.11,727.02,613.81,714.5L613.81,714.5z M692.6,604.1
	c1.15-120.04,1.23-120.74,14.93-122.71c7.58-1.1,13.77-4.93,13.77-8.52c0-3.73-5.91-4.92-13.78-2.78
	c-7.57,2.07-15.84,3.8-18.36,3.85c-2.53,0.05-4.59,58.1-4.59,129s1.55,127.33,3.44,125.4C689.89,726.4,691.96,670.5,692.6,604.1
	L692.6,604.1z M1852.61,484.71c15.39-2.38,15.14-2.66-3.19-3.52l-19.9-0.94l1.39,126.31l1.4,126.31l1.79-122.79l1.79-122.78
	L1852.61,484.71L1852.61,484.71z M758.62,658.25c-8.61-25.42-16.62-45.23-17.79-44.03c-1.18,1.2,4.2,24.73,11.97,52.29
	c7.75,27.56,15.76,47.38,17.79,44.03C772.62,707.19,767.23,683.67,758.62,658.25L758.62,658.25z M1748.3,631.53
	c-1.26-16.3-2.29-2.97-2.29,29.63c0,32.59,1.04,45.92,2.29,29.63C1749.56,674.49,1749.56,647.82,1748.3,631.53z M831.51,638.28
	c0-36.59-1.01-65.36-2.24-63.93c-5.26,6.09-8.4,130.46-3.31,130.46C829.01,704.81,831.51,674.87,831.51,638.28L831.51,638.28z
	 M917.23,570.72V449.84l27.46-4.19c15.1-2.31,37.14-3.04,48.98-1.64c11.84,1.41,19.19,0.19,16.34-2.7
	c-2.83-2.89-26.94-4.43-53.56-3.42l-48.4,1.84l-1.67,129.87c-1.1,87.15,0.4,128.57,4.6,125.93
	C914.88,693.08,917.23,646.2,917.23,570.72L917.23,570.72z M1656.68,454.69l16.71-0.62l-15.32-4.64
	c-8.41-2.54-17.37-3.51-19.89-2.13s-3.96,59.18-3.2,128.45l1.4,125.93l1.79-123.18l1.79-123.2L1656.68,454.69L1656.68,454.69z
	 M2048.6,538.62c16.27,3.41,16.23,3.3-1.72-5.01l-18.37-8.51l-3.06,75.82c-1.69,41.7-1.69,80.03,0,85.17
	c1.68,5.15,3.83-26.71,4.78-70.8l1.72-80.16L2048.6,538.62z M1110.87,660.96c-18.91-22.89-25.12-50.87-24.5-110.33
	c0.53-51,14.87-96.72,34.77-110.94c7.2-5.13,24.19-9.43,37.75-9.52c20.35-0.15,22.71-1.35,13.51-6.81
	c-15.34-9.09-40.63-1.57-60.93,18.1c-43.15,41.82-47.51,178.23-7.11,222.64C1124.53,686.28,1129.72,683.78,1110.87,660.96z
	 M1327.02,431.29c26.57,1.22,45.11,0.16,41.2-2.37c-3.91-2.53-27.08-4.65-51.49-4.69l-44.39-0.1l1.4,129.43l1.4,129.43l1.79-126.97
	l1.79-126.97L1327.02,431.29L1327.02,431.29z M1367.24,642.44c-5.74-17.6-11.8-30.59-13.49-28.88c-1.68,1.72,1.64,17.52,7.37,35.11
	c5.74,17.6,11.81,30.59,13.49,28.88C1376.3,675.84,1372.99,660.04,1367.24,642.44L1367.24,642.44z M1003.41,651.35
	c14.5-13.36,15.75-51.38,2.26-68.54c-9.2-11.69-9.31-11.64-3.06,1.52c16.03,33.81,0.63,70.49-29.69,70.67
	c-8.74,0.06-20.02,3.08-25.08,6.73c-6.86,4.97-2.49,5.86,17.32,3.56C979.72,663.6,996.94,657.32,1003.41,651.35L1003.41,651.35z
	 M1464.29,647.11c-13.75-26.76-18.48-114.1-8.19-151.51c10.51-38.24,37.06-60.87,67.87-57.87c12.59,1.22,21.56,0.06,19.96-2.57
	c-1.6-2.63-13.98-4.79-27.51-4.79c-30.26,0-55.97,23.32-65.9,59.74c-11.06,40.53-8.22,120.33,5.34,150.77
	c6.5,14.57,13.39,26.51,15.33,26.51S1470.02,658.26,1464.29,647.11z M591.63,655.73c6.66-4.3,6.41-10.66-1.41-35.77l-9.51-30.54
	l3.46,28.44c3.1,25.4,1.94,29.19-10.83,35.44c-12.98,6.36-13.17,7.04-2.05,7.34C578.02,660.82,587.18,658.6,591.63,655.73z
	 M1553.78,649.09c3.49-6.63,6.29-15.77,6.25-20.27c-0.04-4.51-3.63-1.19-7.97,7.38c-6.37,12.6-12.2,15.46-30.36,14.89
	c-12.36-0.38-21,1.73-19.21,4.68C1509.04,666.6,1547.19,661.62,1553.78,649.09z M1188.15,629.96c7.67-15.64,10.7-36.86,10.7-74.86
	c0-66.66-11.89-95.74-40.31-98.55c-11.22-1.12-21.96,1.9-26.47,7.42c-6.63,8.15-5.17,8.39,11.78,1.88
	c17.45-6.7,20.46-6.02,30.72,6.88c22.19,27.9,23.98,128.38,2.88,161.19c-8.01,12.45-14.16,15.41-27.79,13.38
	c-9.63-1.44-16.02-0.16-14.19,2.84c1.82,3.01,12.01,4.6,22.64,3.55C1173.21,652.21,1179.79,647.01,1188.15,629.96L1188.15,629.96z
	 M829.4,461.49c2.84-2.74,10.68-6.32,17.41-7.97c8.24-2.01,5.99-3.24-6.86-3.72l-19.1-0.72l-19.2,67.05
	c-10.56,36.88-19.02,71.27-18.82,76.41c0.21,5.15,9.61-21.12,20.89-58.35C815,496.94,826.56,464.23,829.4,461.49L829.4,461.49z
	 M1562.04,565.93l31.76-2.27l-35.21-1.16c-34.78-1.14-35.19-0.94-34.37,16c0.69,14.23,1.28,14.82,3.45,3.43
	C1529.88,570.29,1535.08,567.87,1562.04,565.93L1562.04,565.93z M1036.87,568c-2.22-3.66-6.97-6.65-10.55-6.65
	c-4.06,0-3.6,3.58,1.23,9.5C1035.95,581.17,1043.46,578.87,1036.87,568L1036.87,568z M1749.92,517.01v-50.57l16.84,3.97
	c12.49,2.97,14.47,2.36,7.66-2.34c-5.06-3.48-14.01-6.37-19.9-6.43c-9.32-0.08-10.72,6.41-10.72,49.86v49.95l-32.15-2.45
	c-25.02-1.91-27.4-1.43-10.72,2.18C1751.38,572.09,1749.92,573.39,1749.92,517.01L1749.92,517.01z M997.17,537.38
	c17.43-14.38,18.77-46.98,2.54-62.09c-10.45-9.74-10.75-9.75-3.67-0.12c9.98,13.55,6.54,49.21-5.34,55.4
	c-5.06,2.63-18.83,7.54-30.61,10.91l-21.43,6.12l22.28,0.64C974.26,548.62,988.82,544.25,997.17,537.38z M1370.32,530.17
	c14.64-14.92,16-45.19,2.62-58.81c-13.91-14.18-17.1-12.03-6.03,4.06c21.29,30.97,7.9,54.21-35.38,61.42l-25.49,4.25l26.02,0.77
	C1350.63,542.41,1361.56,539.08,1370.32,530.17L1370.32,530.17z M1551.58,488.19c-2.04-2.07-3.49,1.62-3.22,8.18
	c0.29,7.27,1.73,8.75,3.69,3.77C1553.83,495.64,1553.6,490.27,1551.58,488.19z"/>
<path class="st2" d="M1201.88,2742.61c-73.64-35.77-266.38-198.12-394.94-332.62c-350.74-367.01-546.45-801.14-618.28-1371.48
	c-9.55-75.8-24.44-303.83-24.49-375.15c-0.1-115.62,36.08-186.14,115.04-224.31c84.57-40.88,254.21-94.08,383.92-120.41
	c226.6-46.02,543.82-66.4,783.71-50.36c268.77,17.96,471.07,55.73,665.97,124.36c139.25,49.03,180.99,77.34,211.96,143.75
	c15.87,34.05,15.98,35.37,14.86,171.54c-4.65,559.49-149.91,1053.01-425.48,1445.57c-129.5,184.49-313.06,372.85-510.79,524.15
	C1297.72,2758.48,1259.76,2770.72,1201.88,2742.61L1201.88,2742.61z M1335.07,2698.8c144.32-98.14,371.51-312.07,484.75-456.46
	c121.45-154.86,250.62-378.35,315.42-545.78c99.61-257.38,155.48-520.82,177.9-838.93c7.49-106.24,7.82-253.6,0.64-285.08
	c-3.6-15.81-3.1-23.85,1.55-25.43c8.97-3.05-11.7-35.67-22.6-35.67c-4.4,0-14.66-7.31-22.82-16.21
	c-57.6-62.9-353.96-151.25-624.07-186.05c-196.28-25.27-526.47-28.44-722.49-6.91c-301.43,33.1-622.91,124.46-688.23,195.6
	c-9.77,10.65-19.8,18.09-22.27,16.53c-31.66-19.93-31.28,276.59,0.69,533.45c70.18,564.1,271.43,1000.61,629.96,1366.39
	c126.43,128.98,280.17,258.6,362.85,305.91C1250.75,2745.59,1271.29,2742.17,1335.07,2698.8L1335.07,2698.8z M1219.46,2667.42
	c-13.92-8.25-53.66-36.88-88.29-63.6c-34.63-26.72-66.6-48.58-71.03-48.58s-17.05-8.15-28.03-18.12l-19.98-18.12l22.96,16.78
	c30.87,22.56,29.19,16.26-2.6-9.77c-14.06-11.51-23.54-17.59-21.07-13.52c10.19,16.81-7.63,5.63-30.19-18.94
	c-13.31-14.5-17.32-20.83-8.9-14.08c8.41,6.75-30.24-35.43-85.9-93.72c-98.13-102.76-191.97-215.84-253.6-305.59
	c-35.12-51.14-44.39-62.09-34.33-40.54l7.29,15.6l-12.55-15.6c-6.9-8.58-11.25-19.25-9.66-23.71c1.59-4.46,0.28-6.48-2.91-4.47
	c-6.13,3.86-26.37-30.38-21.13-35.72c1.69-1.72-10.51-28.55-27.08-59.63c-43.95-82.4-77.83-155.32-117.19-252.25
	c-19.15-47.17-36.47-84.08-38.49-82.03c-2.01,2.05-2.23-2.86-0.49-10.91c2.08-9.57,1.28-11.97-2.28-6.9
	c-7.74,11-28.42-49.66-23.26-68.27c3.2-11.57,2.64-12.53-2.92-4.98c-5.37,7.29-6.06,4.52-3.09-12.47
	c3.01-17.25,2.32-19.87-3.27-12.47c-6,7.93-6.52,7.62-3.45-2.04c1.99-6.27-3.1-38.54-11.31-71.73
	c-39.83-160.86-81.36-447.12-83.41-574.92c-0.32-19.66-1.85-24.43-5.11-15.93c-4.32,11.25-4.96,11.02-8.67-3.11
	c-2.2-8.4-4.04-30-4.09-48.01c-0.13-49.64-12.13-43.25-20.5,10.91c-1.33,8.58-2.74-26.51-3.15-77.96
	c-0.41-51.46,1.28-96.37,3.76-99.8c2.47-3.43,12.73-6.24,22.78-6.24c22.03,0,26.5-13.48,13.37-40.29
	c-8.58-17.51-8.2-19.33,7.2-35.25c15.65-16.18,73.34-46.32,105.03-54.87c14.79-3.99,14.73-3.81-1.54,5.64
	c-9.25,5.38-16.83,12.51-16.83,15.83c0,7.73-0.17,7.75,30.61-3.32c31.02-11.15,38.9-11.73,33.26-2.45c-2.73,4.51-0.19,5.63,7.3,3.22
	c131.78-42.25,244.61-70.45,363.54-90.9c56.33-9.68,95.61-19,88.78-21.06c-6.74-2.04,1.53-2.31,18.37-0.59
	c23.39,2.38,28.44,1.47,21.43-3.83c-6.99-5.28-1.15-6.22,24.48-3.88c18.52,1.69,92.92,0.65,165.32-2.31
	c244.11-9.95,345.97-12.12,338.35-7.21c-4.17,2.69,33.31,8.31,83.28,12.5c111,9.31,280.16,33.92,371.71,54.08
	c37.41,8.24,74.66,13.48,82.78,11.64c12.06-2.73,13.07-2.02,5.57,3.86c-7.57,5.92-6.86,6.52,4.08,3.4
	c15.83-4.51,46.08,2.21,41.79,9.29c-1.67,2.75,2.92,3.41,10.19,1.47c9.61-2.56,11.91-1.38,8.43,4.37c-3.57,5.88-1.28,6.75,8.99,3.44
	c8.82-2.85,12.39-2.15,9.91,1.94c-2.22,3.67,9.84,11,28.32,17.23c61.12,20.57,130.21,53.41,147.53,70.11
	c36.36,35.06,37.84,42.36,36.48,180.58c-1.06,107.21-12.92,297.77-23.39,375.72c-3.29,24.51-1.44,20.32,16.55-37.43
	c6.95-22.29,15.01-43.58,17.92-47.3c2.91-3.72,7.93-21.96,11.17-40.54c5.59-32.05,5.73-31.38,2.67,12.99
	c-21.42,311.36-127.22,682.06-269.32,943.83c-120.94,222.75-295.72,443.28-467.74,590.18l-39.71,33.92l27.85-30.79
	c15.32-16.94,32.35-40.99,37.82-53.46c5.49-12.46,18.99-33.52,30.01-46.78l20.03-24.12l-21.12,19.05
	c-11.61,10.48-39.03,35.56-60.92,55.74c-47.85,44.12-171.85,145.42-227.63,185.98C1269.45,2683.48,1252.48,2687,1219.46,2667.42
	L1219.46,2667.42z M1064.17,1927.35c25.97-26.46,10.34-45.2-19.76-23.69c-11.02,7.87-21.11,14.93-22.43,15.73
	c-4.97,2.96,13.44,20.44,21.52,20.44C1048.13,1939.82,1057.44,1934.21,1064.17,1927.35L1064.17,1927.35z M902.63,1833.57
	c0.51-10.17-1.05-18.5-3.46-18.5c-8.31,0-20.3,30.38-16.24,41.17C888.81,1871.83,901.47,1857.27,902.63,1833.57z M1351.3,1829.82
	c11.23-5.7,12.37-8.28,5.52-12.52c-4.74-2.95-14.48-15.17-21.65-27.17c-16.17-27.09-38.49-51.82-42.81-47.43
	c-1.78,1.81,5.75,17.53,16.7,34.94c16.45,26.11,19.37,35.9,16.73,55.97c-3.54,26.89,2.69,40.8,8.01,17.87
	C1335.66,1843.52,1343.53,1833.77,1351.3,1829.82L1351.3,1829.82z M1676.36,1819.76c-0.04-4.29-2.46-11.61-5.35-16.26
	c-6.73-10.82-15.59,1.73-10.59,15C1664.58,1829.57,1676.48,1830.52,1676.36,1819.76L1676.36,1819.76z M1431.53,1683.64
	c0-2.95-5.51-8.36-12.24-12.03c-6.73-3.67-12.24-10.79-12.24-15.81c0-5.02-2.76-9.14-6.13-9.14c-10.49,0-6.89,36.36,4.22,42.7
	C1416.27,1695.7,1431.53,1692.39,1431.53,1683.64z M949.51,1596.77l3.33-34.31l-9.47,21.83c-5.22,12-10.47,35.86-11.68,53.01
	c-2.16,30.69-2.06,30.89,6.15,12.47C942.42,1639.49,947.67,1615.63,949.51,1596.77L949.51,1596.77z M1271.1,1636.37
	c1.53-10.54,6.34-12.37,31.49-11.98c34.33,0.51,52.53-12.25,58.78-41.25c3.04-14.09,0.89-21.96-8.88-32.56
	c-7.08-7.67-23.56-35.73-36.6-62.34c-26.86-54.78-25.78-57.1,24.06-52.21c16.69,1.63,30.35,1.03,30.35-1.35
	c0-8.18,31.24-18.8,55.34-18.8c17.52,0,26.25,3.42,31.8,12.47c4.2,6.86,11.81,12.39,16.89,12.29c7.33-0.15,7.02-1.51-1.47-6.54
	c-19.05-11.31-11.35-18.86,8.55-8.4c14.84,7.83,17.3,11.41,10.72,15.66c-6.26,4.04-4.45,5.49,6.76,5.43
	c15.29-0.09,15.29-0.12-4.68-18.62c-15.27-14.14-25.87-18.53-44.8-18.53c-13.63,0-30.12-2.9-36.63-6.45
	c-14.53-7.92-16.41-27.85-2.09-22.26c5.36,2.1,17.07,5.4,26.02,7.34l16.27,3.52l-15.32-13.71c-8.41-7.54-22.88-16.43-32.14-19.75
	c-20.19-7.25-21.97-22.01-3.49-28.97c12.58-4.74,12.32-5.26-4.6-8.82c-11.52-2.44-21.78-10.79-28.65-23.33
	c-9.44-17.22-12.93-19.05-29.33-15.38c-20.92,4.68-48.74-9.68-48.74-25.14c0-5.06,5.8-15.12,12.89-22.34l12.89-13.14l-11.83-38.32
	c-11.32-36.69-13.27-39.03-45.71-54.95c-50.27-24.67-52.01-45.28-6.47-76.81c27.55-19.07,49.16-19.83,81.8-2.87
	c26.49,13.77,42.15,41.05,42.15,73.43c0,12.06,11.04,33.31,33.26,64c34.52,47.66,48.81,84.05,45.3,115.33
	c-1.67,14.82-5.45,18.71-20.41,20.98c-16.15,2.45-15.04,3.2,9.19,6.24c23.03,2.88,29.08,6.58,36.93,22.56
	c12.6,25.67,42.52,63.88,42.59,54.41c0.04-4.17-5.67-22.41-12.69-40.54c-7.02-18.14-22.27-69.47-33.88-114.06
	c-12.2-46.86-32.02-103.32-46.93-133.75c-14.2-28.97-26.73-54.93-27.86-57.7c-1.12-2.77,3.6-5.03,10.5-5.03
	c20.29,0,54.78,36.05,80.94,84.63c25.76,47.79,46.49,67.1,68.63,63.9c11.56-1.68,13.25-5.53,12.3-27.85
	c-1.26-29.95-21.26-73.62-38.84-84.8c-17.84-11.35-14.8-17.18,8.97-17.18c21.14,0,33.26-8.38,22.19-15.34
	c-3.26-2.05-26.4-9.06-51.44-15.59c-25.03-6.52-73.39-24.88-107.48-40.78c-37.59-17.56-66.45-27.47-73.41-25.22
	c-6.31,2.04-26.35,16.96-44.53,33.17c-50.2,44.73-89.89,72.54-133.78,93.68c-73.64,35.47-88.79,60.45-106.5,175.6
	c-5.52,35.86-12.24,66.73-14.95,68.61c-11.5,8.01-69.43,90.62-77.71,110.8c-10.89,26.55-11.31,39.77-1.92,60.74
	c8.86,19.8,31.45,21.13,44.2,2.59c14.16-20.6,28.42-11.09,24.09,16.09c-2.31,14.45-1.12,22.16,3.4,22.16
	c10.84,0,31.62-23.92,41.33-47.6c11.62-28.33,22.91-31.79,51.12-15.64c29.4,16.84,63.83,17.23,84.14,0.95
	c8.5-6.81,17.7-10.98,20.44-9.25c6.67,4.2,15.01-9.71,15.01-25.02c0-16.82,19.03-19.44,27.28-3.76c4.93,9.4,4.71,15.91-0.88,25.04
	c-10.83,17.68-0.96,23.73,19.33,11.87l17.37-10.16l2.6,22.65c2.33,20.33-0.4,25.64-26.66,51.69c-32.33,32.08-41.1,54.52-30.53,78.15
	C1255.1,1656,1268.38,1654.96,1271.1,1636.37L1271.1,1636.37z M1033.56,1505.91c0-18.53,10-40.13,18.58-40.13
	c8.48,0,7.31,39.73-1.44,48.64C1039.22,1526.13,1033.56,1523.32,1033.56,1505.91z M1116.14,1424.26
	c-5.58-5.67-12.63-16.96-15.65-25.1c-8.06-21.6-22.4-24.48-39.67-7.95c-18.08,17.3-25.1,12.61-16.37-10.99
	c3.52-9.55,9.72-43.76,13.75-76.04c11.49-92.17,37.6-107.36,58.51-34.06c5.26,18.42,13.49,37.5,18.3,42.4
	c4.81,4.9,8.75,20.17,8.75,33.93c0,20.23,4.69,30.54,24.49,53.83c13.47,15.87,24.48,30.06,24.48,31.58c0,1.52-14.95,2.74-33.23,2.74
	C1136.75,1434.59,1123.08,1431.33,1116.14,1424.26L1116.14,1424.26z M1361.13,1032.39c-14.75-12.38-16.67-16.56-9.74-21.23
	c16.96-11.41,54.62,13.58,42.64,28.29C1384.82,1050.77,1382.41,1050.25,1361.13,1032.39L1361.13,1032.39z M1542.78,1579.5
	c5.99-6.09-1.68-7.69-36.84-7.69c-66.97,0-98.89-22.28-98.89-69.02c0-51.43,64.31-65.63,80.67-17.8
	c3.43,10.02,8.82,18.23,11.98,18.23c3.36,0,3.11-5-0.6-12.07c-10.35-19.71-7.43-25.32,13.56-26.09c14.89-0.54,11.7-2.11-12.67-6.25
	c-17.91-3.04-37.71-8.32-43.98-11.75c-24.99-13.63-66.82-4.57-83.97,18.19c-21.5,28.52,3.56,87.51,47.25,111.26
	c23.33,12.68,34.32,14.64,71.75,12.83C1515.35,1588.15,1538.63,1583.73,1542.78,1579.5z M1666.76,1539.78
	c-2.37-3.9-4.6-12.79-4.95-19.76c-0.37-6.97-4.49-13.97-9.16-15.55c-5.17-1.75-6.82-0.12-4.23,4.16c2.61,4.32-0.35,7.05-7.68,7.05
	c-6.57,0-13.54,4.2-15.48,9.36c-2.63,6.99,0.97,9.36,14.29,9.36c9.8,0,19.51,2.81,21.6,6.24c2.08,3.43,5.17,6.24,6.84,6.24
	C1669.68,1546.87,1669.11,1543.68,1666.76,1539.78L1666.76,1539.78z M1642.11,1381.08c4.58-12.15-2.24-58.76-8.59-58.76
	c-9.74,0-16.73,55.66-8.1,64.45C1632.13,1393.6,1638.18,1391.53,1642.11,1381.08L1642.11,1381.08z M1009.2,1346.3
	c13.39-21.12,24.32-41.47,24.28-45.23c-0.04-3.76-6.88,5.29-15.2,20.12c-8.32,14.82-20.87,35.17-27.9,45.22
	c-7.03,10.06-11.15,18.28-9.16,18.28C983.22,1384.7,995.8,1367.41,1009.2,1346.3L1009.2,1346.3z M1660.92,1208.69
	c-4.34-26.17-13.66-35.92-21.8-22.83c-9.04,14.54-6.11,48.53,5.18,60.28c10.29,10.7,10.91,10.64,15.62-1.39
	C1662.62,1237.85,1663.06,1221.63,1660.92,1208.69L1660.92,1208.69z M1043.38,1217.97c-2.03-2.07-3.48,1.61-3.21,8.18
	c0.29,7.27,1.74,8.74,3.7,3.77C1045.63,1225.42,1045.41,1220.04,1043.38,1217.97L1043.38,1217.97z M1091.72,1128.96
	c6.09-6.86,9.71-12.48,8.01-12.48c-1.68,0-8.04,5.61-14.14,12.48c-6.09,6.86-9.7,12.47-8.02,12.47
	C1079.27,1141.43,1085.63,1135.82,1091.72,1128.96z M1630.75,983.35c8.09-43.92-31.13-91.8-82.98-101.29
	c-21.22-3.88-21.19-3.83,6.18,10.78c48.18,25.72,69.86,80.96,45.61,116.22c-5.24,7.63-7.56,17.14-5.14,21.12
	C1600.94,1040.94,1626.13,1008.47,1630.75,983.35L1630.75,983.35z M1263.17,1016.68c6.09-6.86,9.7-12.47,8.01-12.47
	s-8.04,5.61-14.14,12.48c-6.09,6.86-9.7,12.47-8.02,12.47C1250.71,1029.16,1257.07,1023.54,1263.17,1016.68L1263.17,1016.68z
	 M1302.96,982.38c4.19-5.15,6.25-9.36,4.56-9.36s-6.49,4.21-10.68,9.36s-6.25,9.36-4.56,9.36
	C1293.96,991.73,1298.77,987.52,1302.96,982.38z M1195.82,863.37c-52.87-19.35-55.51-55.47-5.48-74.93
	c24.23-9.43,39.62-9.15,66.13,1.22c6.47,2.54,9.74,0.38,9.74-6.36c0-13.46,24.07-22.2,63.17-22.97c25.08-0.49,28.53-1.67,16.43-5.61
	c-62.76-20.48-178.57,12.04-204.95,57.54l-11.22,19.35l22.28,20.81c17.34,16.18,27.4,20.7,45.34,20.36l23.05-0.44L1195.82,863.37
	L1195.82,863.37z M366.17,698.88c0-104.21,1.45-124.28,9.18-127.3c7.95-3.11,9.18,11.08,9.18,105.36
	c0,121.05-2.25,115.82,42.86,99.61c29.93-10.77,36.74-11.49,36.74-3.95c0,2.97-20.8,13.13-46.21,22.57
	c-25.42,9.45-45.14,18.27-43.82,19.61c1.31,1.34,23.26-5.21,48.77-14.55c41.04-15.04,46.67-19.01,48.89-34.45
	c2.76-19.16,0.24-19.23-43.59-0.95c-39.43,16.44-38.25,19.71-36.26-100.55c0.99-60.03,1.53-109.16,1.19-109.15
	c-0.34,0-9.29,3.09-19.9,6.85l-19.28,6.84v130.74c0,85.58,2.11,129.41,6.12,126.89C363.79,824.08,366.17,774.63,366.17,698.88
	L366.17,698.88z M1381.54,817.86c6.11-3.95,4.63-6.22-5.9-9.02c-7.74-2.06-15.58-1.28-17.41,1.74c-1.84,3.02-12.95,6.68-24.71,8.13
	c-17.19,2.11-15.37,2.81,9.23,3.52C1359.59,822.73,1377.04,820.76,1381.54,817.86L1381.54,817.86z M2118.57,688.48l-1.79-122.38
	l17.11,4.31c20.19,5.08,12.37-5.34-8.93-11.89l-13.78-4.24v128.29c0,70.55,2.07,128.29,4.6,128.29
	C2118.29,810.86,2119.55,755.79,2118.57,688.48z M2000.25,686.82c-20.76-52.02-38.86-93.46-40.22-92.09
	c-1.35,1.38,11.74,38.64,29.08,82.8c17.34,44.18,34.07,87.01,37.17,95.2c3.1,8.19,7.02,13.5,8.69,11.79
	S2021.02,738.86,2000.25,686.82L2000.25,686.82z M534.48,737.45c5.8-39.38,8.07-43.48,26.53-47.96c9.02-2.19,21-5.36,26.63-7.06
	c8.16-2.47,11.63,3.78,17.18,31.04l6.96,34.12l18.63-6.61c21.64-7.69,23.1,6.53-14.61-142.6l-26.13-103.32l-18.84,4.97
	c-17.67,4.67-19.48,7.97-29.29,53.42c-5.76,26.64-19.55,88.03-30.67,136.42l-20.2,87.98l19.85-6.2
	C528.01,766.18,530.84,762.14,534.48,737.45L534.48,737.45z M515.23,738.85c-1.99-5.29-2.26-11.02-0.58-12.72
	c1.67-1.71,4.51,2.63,6.31,9.63C524.77,750.62,520.53,752.91,515.23,738.85z M519.73,708.45c-0.27-6.57,1.19-10.26,3.22-8.18
	c2.03,2.08,2.26,7.45,0.48,11.95C521.47,717.19,520.02,715.71,519.73,708.45z M531.97,652.32c-0.27-6.58,1.19-10.26,3.22-8.18
	c2.03,2.08,2.26,7.45,0.49,11.95C533.72,661.06,532.27,659.58,531.97,652.32z M556.57,637.76c0.32-9.43,3.92-31.19,8-48.34
	l7.41-31.19l7.66,43.07c6.26,35.2,6.19,44.03-0.34,48.25C564.14,659.34,555.97,655.11,556.57,637.76z M538.1,627.36
	c-0.27-6.57,1.18-10.26,3.22-8.18c2.03,2.07,2.24,7.45,0.48,11.95C539.84,636.11,538.39,634.63,538.1,627.36z M547.63,589.42
	c6.93-41.76,14.8-59.99,10.78-24.96c-1.97,17.16-6.13,35.4-9.25,40.54C545.46,611.11,544.93,605.67,547.63,589.42L547.63,589.42z
	 M562.2,522.37c-0.06-7.34,4.42-10.75,13.68-10.42c9.21,0.32,10.73,1.67,4.6,4.05c-5.06,1.96-11.22,6.65-13.68,10.43
	C564.02,530.65,562.25,529.1,562.2,522.37z M1927.49,627.71V506.95l16.84,2.74c13.16,2.14,14.83,1.29,7.65-3.88
	c-5.05-3.65-15.38-6.68-22.96-6.73l-13.78-0.1v124.75c0,79.01,2.24,124.75,6.12,124.75S1927.49,704.06,1927.49,627.71z
	 M712.62,723.52c7.02,0,8.84-15.86,9.52-82.64c0.45-45.46,2.04-75.63,3.52-67.06c4.29,24.85,39.49,139.83,44.5,145.4
	c2.5,2.79,6.33-5.64,8.49-18.71c2.17-13.07,13.44-53.26,25.06-89.27l21.12-65.5l-3.6,81.69l-3.6,81.69l18.94-2.83l18.94-2.83
	l1.77-127.2l1.77-127.2h-19.3c-18.64,0.01-19.76,1.57-32.8,45.23c-7.42,24.87-18.27,64.32-24.08,87.66l-10.59,42.43l-22.43-71.28
	c-12.34-39.2-22.43-74.44-22.43-78.3c0-7.82-8.49-8.72-29.08-3.08c-13.72,3.74-13.78,4.29-13.78,131.57
	c0,113.98,1.06,127.39,9.69,124.02C699.57,725.23,707.84,723.53,712.62,723.52L712.62,723.52z M1836.92,607.39l-1.79-122.37
	l15.57,3.97c8.56,2.19,15.57,1.44,15.57-1.67c0-3.11-8.27-6.88-18.37-8.4l-18.37-2.74v126.79c0,69.73,2.06,126.79,4.6,126.8
	C1836.64,729.77,1837.9,674.7,1836.92,607.39L1836.92,607.39z M1748.31,622.17c-1.23-18.02-2.25-3.27-2.25,32.74
	c0,36.02,1.01,50.76,2.24,32.74C1749.56,669.65,1749.56,640.18,1748.31,622.17L1748.31,622.17z M991.09,685.6
	c33.38-8.56,50.14-30.75,53.39-70.73c2.42-29.67,0.9-35.8-12.15-49.1c-14.57-14.84-14.66-15.53-3.78-29.21
	c17.13-21.55,14.99-65.41-4.14-84.9c-14.18-14.45-18.91-15.43-65.83-13.75l-50.54,1.81l-1.65,128.52l-1.65,128.53l32.27-2.79
	C954.74,692.44,979.08,688.67,991.09,685.6L991.09,685.6z M941.71,614.37v-40.54h23.54c28.24,0,43.8,14.79,43.8,41.63
	c0,24.58-16.92,39.46-44.87,39.46h-22.48V614.37L941.71,614.37z M944.15,533.89c-1.76-4.69-2.35-20.78-1.29-35.76
	c1.72-24.35,3.65-27.43,18.45-29.17c26.55-3.11,41.63,8.68,41.63,32.59c0,23.97-7.25,31.53-35.44,36.98
	C953.33,541.27,946.42,539.89,944.15,533.89L944.15,533.89z M1645.83,576.22c0-119.28,0.31-122.28,12.24-119.1
	c6.74,1.79,12.24,1.04,12.24-1.67c0-4.41-20.26-12.31-32.14-12.53c-2.53-0.05-4.6,57.46-4.6,127.78c0,81.08,2.24,127.86,6.13,127.86
	C1643.58,698.56,1645.83,653.63,1645.83,576.22z M2048.58,539.48c16.52,3.2,16.5,3.14-1.7-5.58l-18.37-8.79l-1.74,72.04
	c-1.56,64.84-2.63,70.87-10.75,60.22c-8.25-10.82-8.47-10.23-2.68,6.88c13.45,39.66,15.21,34.9,16.87-45.29l1.71-82.72
	L2048.58,539.48L2048.58,539.48z M1560.12,682.33c10.03-6.28,11.08-8.06,3.06-5.18c-6.74,2.42-21.89,6.5-33.67,9.07
	c-21.07,4.6-21.12,4.68-3.08,5.18C1536.54,691.67,1551.7,687.59,1560.12,682.33z M1185.46,673.46
	c24.57-15.26,37.28-44.16,41.98-95.46c9.75-106.29-37.99-179.83-97.93-150.85c-30.77,14.87-48.34,54.05-51.83,115.57
	C1071.29,655.15,1119.94,714.16,1185.46,673.46L1185.46,673.46z M1131.97,636.65c-25.19-25.66-25.53-132.3-0.52-159.42
	c18.68-20.25,33.84-19.87,47.39,1.2c8.49,13.2,10.86,29.93,10.86,76.68s-2.37,63.49-10.86,76.69
	C1166.08,651.63,1148.46,653.45,1131.97,636.65L1131.97,636.65z M1407.05,673.37c0-2.79-7.93-27.9-17.62-55.79l-17.61-50.71
	l14.52-9.69c32.88-21.95,31.88-93.34-1.69-120.25c-13.04-10.45-24.83-12.82-64.14-12.82h-48.16v255.74h15.3
	c15.19,0,15.31-0.42,15.31-56.14v-56.14l16.84,0.06c15.89,0.08,17.81,3.32,34.31,58.09c17.23,57.26,17.69,57.97,35.2,55.36
	C1399.07,679.64,1407.05,676.16,1407.05,673.37L1407.05,673.37z M1380.68,668.94c-1.43-2.57-10.08-27.83-19.23-56.14l-16.64-51.45
	h-23.99c-15.14,0-23.97-2.88-23.94-7.8c0.04-5.17,11.47-8.14,33.92-8.8c18.63-0.56,37.62-4.18,42.21-8.06
	c22.69-19.18,15.1-67.72-12.59-80.57c-18.18-8.43-55.37-9.31-60.16-1.42c-1.88,3.1-3.95,36.7-4.61,74.68
	c-0.65,37.98-2.72,67.48-4.6,65.59c-1.87-1.91-4.79-38.32-6.47-80.93l-3.06-77.47l43.04,0.01c50.05,0.01,65.97,8.46,76.38,40.59
	c9.56,29.54,2.71,56.13-18.91,73.37l-17.96,14.32l18.03,54.37c13.75,41.45,16.04,54.37,9.61,54.37
	C1387.08,673.63,1382.11,671.52,1380.68,668.94L1380.68,668.94z M1305.47,527.81c-1.78-4.72-2.38-22.27-1.35-38.98
	c1.83-29.23,2.66-30.47,21.71-32.34c39.54-3.89,67.23,48.63,37,70.2C1345.9,538.77,1309.86,539.46,1305.47,527.81L1305.47,527.81z
	 M1487.52,670.3c-23.92-20.51-33.49-51.14-33.99-108.95c-0.55-62.43,14.59-104.02,42.14-115.74c27.9-11.87,61.04-0.77,75.51,25.3
	c3.81,6.86,7.01,8.75,7.11,4.2c0.1-4.56-7.87-16.48-17.71-26.51c-13.73-13.98-23.52-18.23-42.04-18.23
	c-53.04,0-77.32,45.53-73.72,138.19c2.49,63.86,15.62,102.18,38.18,111.48C1505.28,689.21,1506.5,686.57,1487.52,670.3
	L1487.52,670.3z M1549.75,658.34c21.43-21.82,17.46-72.04-5.69-72.04c-4.65,0-8.43-4.51-8.43-10.02c0-6.58,3.33-8.72,9.68-6.24
	c5.33,2.08,16.21,3.78,24.18,3.78c13.11,0,14.7,3.12,16.73,32.75l2.24,32.75l1.15-38.98l1.13-38.98h-33.67
	c-31.6,0-33.68,0.94-33.68,15.18c0,11.92,3.61,15.61,16.84,17.16c14.78,1.73,16.57,4.26,14.68,20.69
	c-3.17,27.6-11.88,40.56-27.14,40.41c-22.71-0.23-40.82-19.59-46.63-49.84c-3.66-19.05-5.59-22.64-6.05-11.24
	C1473.01,645.02,1521.56,687.06,1549.75,658.34L1549.75,658.34z M1583.42,651.63c-1.88-1.92-5.31,1.54-7.61,7.69
	c-3.33,8.9-2.63,9.61,3.43,3.49C1583.43,658.58,1585.31,653.55,1583.42,651.63L1583.42,651.63z M1749.92,520.44
	c0-45.63,0.26-46.41,15.67-46.41c8.89,0,14.03-2.7,11.88-6.24c-2.08-3.43-10.51-6.24-18.73-6.24c-14.6,0-14.95,1.15-14.95,49.9
	c0,35.95-2.14,49.8-7.65,49.53c-4.21-0.2-20.74-2.56-36.73-5.24c-16-2.69-29.1-2.69-29.1-0.01c0,2.68,13.1,6.67,29.1,8.86
	c15.99,2.2,31.83,4.8,35.2,5.78C1747.32,574.07,1749.92,565.57,1749.92,520.44L1749.92,520.44z M1483.41,509.54
	c2.15-13.05,9.26-29.2,15.81-35.86c6.54-6.67,9.22-12.13,5.93-12.13c-10.82,0-25.7,30.22-28.28,57.46
	C1473.92,549.82,1477.69,544.39,1483.41,509.54L1483.41,509.54z M1560.11,502.39c0-8.41-14.93-34.31-21.19-36.76
	c-4.85-1.89-4.06,4.2,2.35,18.17C1549.46,501.59,1560.11,512.12,1560.11,502.39L1560.11,502.39z M1584.6,492.94
	c0-3.33-4.13-4.42-9.18-2.45c-5.05,1.97-9.18,4.69-9.18,6.04c0,1.35,4.13,2.45,9.18,2.45
	C1580.47,498.98,1584.6,496.26,1584.6,492.94L1584.6,492.94z M326.54,475.24c-1.88-1.92-6.83-0.01-10.98,4.26
	c-6.01,6.15-5.3,6.88,3.43,3.49C325.03,480.64,328.43,477.15,326.54,475.24L326.54,475.24z"/>
<path class="st3" d="M1239.13,2751.21c-23.07-3.23-38.67-10.84-71.64-34.9c-112.97-82.47-206.35-158.94-289.99-237.49
	c-32.08-30.13-102.55-102.55-127.31-130.82c-101.2-115.57-185.14-234.02-287.93-406.24c-22.66-37.96-50.31-94.66-88.04-180.64
	c-122.58-279.17-186.6-561-205.49-904.64c-3.67-66.9-4.89-118.47-4.58-194.25c0.26-62.66,0.56-70.18,3.56-86.72
	c5.67-31.3,16.64-60.96,29.93-80.92c16.45-24.7,61.08-60.33,96.82-77.3c50.48-23.98,173.44-61.11,284.24-85.85
	c30.08-6.72,89.43-18.86,109.56-22.43c5.9-1.04,18.31-3.27,27.58-4.93c9.17-1.66,18.36-3.16,27.58-4.5
	c5.9-0.8,15.55-2.47,21.45-3.72s16.93-3.08,24.51-4.05c7.59-0.98,23.44-3.12,35.25-4.76c9.44-1.33,18.89-2.59,28.35-3.81
	c36.99-4.43,48.98-5.82,73.55-8.49c124.69-13.54,290.36-19.94,409.89-15.81c52.48,1.81,171.55,8.68,180.97,10.45
	c2.61,0.49,14.34,1.44,26.05,2.1c11.71,0.66,30.95,2.39,42.74,3.83c11.81,1.44,30.76,3.68,42.14,4.97
	c53.37,6.06,99.7,12.09,119.51,15.55c7.17,1.25,26.12,4.38,42.14,6.95c168.64,27.08,308.29,66.55,412.18,116.49
	c44.95,21.6,62.9,33.75,84.74,57.28c25.47,27.46,40.63,56.43,48.59,92.86c6.76,30.88,3.72,223.24-5.45,345.42
	c-12.5,166.74-34.04,307.07-69.66,453.8c-38.48,158.54-90.1,303.78-165.16,464.72c-25.38,54.41-32.25,67.79-53.3,103.71
	c-11.32,19.29-20.92,35.8-21.34,36.68s-2.83,4.74-5.36,8.61s-5.43,8.4-6.43,10.1c-1.01,1.7-4.81,8-8.43,14.02
	c-3.61,6.01-6.86,11.61-7.2,12.47c-0.34,0.86-1.04,1.91-1.56,2.34c-0.53,0.42-3.98,5.69-7.68,11.7c-4.1,6.64-8.31,13.22-12.61,19.74
	c-3.23,4.85-5.88,9.53-5.88,10.4c0,0.87-0.51,1.79-1.15,2.09c-1.56,0.7-9.57,13.36-9.57,15.12c0,0.79-1.03,1.84-2.29,2.33
	c-1.26,0.49-2.29,1.61-2.29,2.49c0,0.88-3.79,7.16-8.42,13.97c-4.65,6.81-8.43,13.06-8.43,13.89c0,0.83-1.03,1.91-2.29,2.4
	c-1.26,0.49-2.31,1.97-2.31,3.29s-0.58,2.38-1.26,2.38c-0.7,0-2.26,1.94-3.45,4.29c-1.2,2.35-2.7,4.99-3.34,5.84
	c-5.16,6.89-11.41,15.7-22.58,31.9c-10.96,15.86-22.58,32.04-38.16,53.08c-137.92,186.33-282.18,326.26-508.75,493.53
	c-33.07,24.42-48.58,33.12-67.87,38.11C1269.72,2751.36,1250.56,2752.82,1239.13,2751.21L1239.13,2751.21z M1278.34,2737.06
	c19.09-4.93,34.95-13.7,65.22-36.04c289.41-213.57,451.12-387.26,635.43-682.49c49.54-79.36,73.56-121.38,93.27-163.18
	c53.64-113.79,92.26-208.53,124-304.23c77.15-232.58,118.79-478.5,129.27-763.35c2.47-66.87,2.01-196.43-0.74-212.52
	c-7.52-43.86-33.97-85.56-72.93-114.96c-14.15-10.68-64.37-36.53-96.47-49.65c-95.11-38.88-203.86-68.07-346.24-92.95
	c-83.6-14.59-192.78-28.04-298.04-36.7c-10.96-0.9-23.71-1.99-28.35-2.4c-14.32-1.31-81.63-5.29-120.28-7.11
	c-73.77-3.49-207.49-1.69-301.1,4.06C816.43,290.57,547.68,339.65,363.41,403c-50.73,17.43-68.77,25.57-94.95,42.85
	c-42.54,28.05-61.94,49.41-75.93,83.56c-16.38,39.97-19.3,73.74-16.83,194.42c3.13,153.09,12.11,272.44,29.9,397.66
	c35.33,248.72,97.24,458.62,203.07,688.49c41.16,89.42,53,111,118.48,215.98c16.19,25.96,60.22,92.52,78.44,118.54
	c123.37,176.32,242.79,303.69,420.71,448.7c46.2,37.66,156.11,121.1,174.67,132.61c6.73,4.18,24.47,11.09,32.79,12.79
	C1245.61,2741.02,1265.72,2740.32,1278.34,2737.06z M1237.13,2674.13c-9.36-2.68-30.65-17.54-74.19-51.79
	c-267.45-210.32-418.48-374.97-569.21-620.54c-20.17-32.88-47.09-78.88-65.22-111.49c-18.09-32.56-75.74-154.66-104.54-221.44
	c-102.11-236.74-158.21-482.4-175.41-768.03c-6.04-100.43-6.95-237.97-1.76-266.67c5.7-31.54,16.02-59.12,30.08-80.49
	c15.34-23.31,43.66-46.46,70.62-57.72c55.37-23.14,180.65-59.25,287.91-82.99c186.57-41.29,360.71-62.64,556.22-68.19
	c53.79-1.52,147.24-1.01,166.26,0.92c3.37,0.34,16.47,1.03,29.11,1.54c121,4.87,283.42,22.35,399.94,43.04
	c143.81,25.53,253.33,57.95,347.06,102.73c14.74,7.05,31.97,15.25,38.26,18.22c51.85,24.46,75.55,62.23,83.37,132.84
	c3.85,34.75-5.35,206.68-17.53,327.75c-34.53,343.16-103.89,593.8-234.45,847.35c-52.71,102.36-136.96,242.25-200.67,333.16
	c-109.25,155.92-215.06,264.87-428.07,440.77c-4.31,3.56-22.31,18.49-40.01,33.19c-17.7,14.7-36.81,29.9-42.49,33.77
	C1272.43,2673.71,1252.97,2678.67,1237.13,2674.13L1237.13,2674.13z M839.96,2116.68c18.8-8.7,25.03-21.98,27.56-58.74
	c1.69-24.45,6.41-33.72,18.46-36.29l6.09-1.29l-0.77-14.74c-1.15-22.01-0.93-54.71,0.4-59.52c0.64-2.33,8.27-13.22,16.96-24.17
	c20.6-25.99,32.88-43.99,36.34-53.26c1.53-4.11,4.27-17.59,6.07-29.96c3.69-25.26,2.09-21.64,29.76-67.55
	c8.22-13.63,20.53-36.34,27.37-50.48c7.45-15.4,14.75-28.24,18.23-32.03c3.01-3.27,5.97-6.59,8.88-9.94
	c1.7-1.99,3.76-3.61,4.58-3.61c3.13,0,12.27,9.81,15.66,16.84c3.41,7.04,3.55,8.82,3.55,43.73c0,36.36,0,36.4,3.61,39.38
	c1.99,1.64,5.19,2.99,7.13,2.99c3.48,0,3.47-0.07-0.81-4.72c-6.27-6.82-7.72-16.2-6.59-42.64c0.88-20.76,0.68-23.49-2.44-32.88
	c-1.87-5.63-3.18-12.5-2.92-15.29c0.45-4.79,0.83-5.08,7.37-5.55c7.78-0.56,11.31-3.18,15.47-11.49c2.93-5.84,3.7-10.56,3.2-19.5
	c-0.24-4.27-1.4-5.58-8.2-9.36c-10.47-5.79-13.36-10.19-15.25-23.18c-2.19-15.01-0.4-61.43,2.78-72.07c2.8-9.38,4.08-9.54,15.04-1.9
	c10.7,7.45,43.22,21.51,59.28,25.64c19.68,5.05,46.43,5.64,54.94,1.22c7.37-3.85,34.81-25.19,46.32-36.03
	c5.26-4.95,13.7-12.07,18.75-15.8c5.06-3.74,11.9-9.12,15.21-11.97c3.31-2.85,7.6-5.19,9.52-5.19c5.42,0,20.01,6.05,25.09,10.4
	c9.23,7.91,4.6,15.89-17.83,30.75c-17.7,11.71-36.63,32.58-45.37,50c-4.01,8.02-22.63,64.13-22.63,68.23
	c0,6.58,5.02,20.25,10.06,27.36c18.44,26.05,27.33,40.66,29.22,48.05c1.15,4.45,3.13,10.65,4.42,13.77
	c4.97,12.11-0.99,18.82-21.14,23.82c-7.77,1.92-18.05,3.97-22.85,4.55l-8.72,1.05l2.47,3.83c2.11,3.28,2.66,3.48,3.82,1.37
	c1.11-2.02,4.51-2.46,18.84-2.46c14.09,0,19.05-0.64,25.57-3.24l8.08-3.24l3.86,4.87c4.31,5.46,29.14,31.45,29.14,30.5
	c0-3.93-11.86-31.34-21.26-49.16c-6.57-12.43-15.05-29.28-18.84-37.43c-3.88-8.34-12.38-22.24-19.43-31.82
	c-6.9-9.36-13.04-18.82-13.65-21.05c-2.15-7.86-1.01-21.17,2.74-31.92c5.92-16.97,10.63-15.84,10.68,2.58
	c0.03,13.37,1.74,17.42,16.46,38.94c16.89,24.7,18.09,26.87,26.51,48.07c7.13,17.97,15.91,34.47,26.29,49.5
	c5.12,7.41,15.04,34.32,15.04,40.8c0,2.61-1.88,5.96-5.16,9.2l-5.17,5.1l-3.28-4.25c-1.81-2.33-3.77-3.76-4.35-3.17
	c-0.59,0.6-1.35,5.6-1.69,11.13c-0.62,9.91-0.55,10.13,4.91,15.05c5.22,4.7,5.54,5.54,5.54,14.45c0,11.26,3.32,18.92,10.22,23.61
	c2.81,1.91,11.98,4.74,21.88,6.75l17.03,3.45l6.04-4.87c10.56-8.5,22.91-23.58,24.61-30.04c1.99-7.47,0.74-13.92-3.41-17.75
	c-2.07-2.04-3.82-4.38-5.2-6.94c-3.1-6.09-0.42-7.64,13.27-7.64c11.15,0,12.03-0.26,15.55-4.51c4.07-4.93,14.46-28.09,20.55-45.84
	c3.11-9.07,3.85-14.1,3.78-25.96c-0.08-12.02,0.65-16.88,3.94-26.51c5.45-15.96,5.49-27.85,0.14-38.31
	c-4.51-8.81-7.75-12.07-19.23-19.37c-12.54-7.98-10.96-12.98,6.24-19.61c9.84-3.79,14.82-7.99,14.82-12.48
	c0-3.66-0.08-3.68-13.55-2.79c-13.49,0.89-13.57,0.88-16.47-3.41c-8.47-12.51-13.31-14.31-22.03-8.21
	c-9.47,6.62-30.68,45.74-30.68,56.55c0,6.28,6.93,12.65,19.56,17.93c6.52,2.73,13.44,5.99,15.37,7.24
	c6.33,4.1,9.49,11.38,9.49,21.89c0.01,5.31,0.73,11.57,1.6,13.91s1.63,8.77,1.67,14.29c0.06,8.16-0.8,11.86-4.65,19.82
	c-6.18,12.77-25.44,38.04-30.49,39.99c-5.47,2.11-11.16-2.4-13.91-11.07c-1.97-6.22-1.88-7.31,1.34-14.68
	c7.24-16.65,8.09-22.85,6.36-46.9c-0.88-12.2-2.44-24.08-3.48-26.39c-3.17-7.08-8.19-4.92-18.83,8.12
	c-10,12.24-16.49,17.42-21.9,17.43c-5.24,0-7.08-5.28-6.15-17.8c0.94-12.59,3.67-21.07,14.62-45.44
	c8.26-18.37,21.32-53.07,25.76-68.51c3.42-11.82,3.81-41.48,0.7-53.79c-1.65-6.58-3.99-10.54-10.13-17.16
	c-13.82-14.88-31.93-40.68-41.63-59.28c-11.1-21.28-18.59-43.65-14.59-43.65c2.08,0,19.09,22.12,26.06,33.9
	c8.54,14.42,12.98,18.11,20.57,17.09c5.56-0.76,5.74-0.63,6.63,4.92c2.97,18.44,11.64,36.59,25.21,52.68
	c6.26,7.42,32.23,28.63,39.75,32.45c8.75,4.45,23.1,9.23,39.93,13.29c10.27,2.48,18.31,3.14,37.97,3.16
	c26.17,0,32.12-1.15,38.32-7.47c1.67-1.69,7.07-4.55,12.01-6.36c4.93-1.8,10.64-4.17,12.67-5.24c5.36-2.86,9.46-9.2,8.44-13.04
	c-0.81-3.04-2.26-3.34-20.28-4.23c-23.22-1.15-43.84-6.03-59.7-14.16c-6.96-3.5-14.07-6.7-21.3-9.58
	c-18-6.89-31.67-18.02-34.83-28.34c-1.58-5.17,1.51-9.54,7.58-10.7c2.95-0.56,5.74-1.64,6.2-2.4c0.46-0.76,2-1.39,3.43-1.41
	c6.54-0.06,6.93-1.97,3.52-16.74c-4.08-17.69-4.11-20.66-0.24-20.66c6.27,0,10.77,3.91,19.44,16.91
	c4.93,7.39,12.87,17.49,17.62,22.43c7.71,8.03,9.32,9,14.84,9c3.42,0,6.6-0.68,7.11-1.51c0.51-0.83-0.49-4.31-2.21-7.74
	c-1.91-3.81-3.11-9.25-3.11-14.04c0-6.51,0.79-8.72,4.74-13.31c4.42-5.11,5.41-5.51,13.57-5.51c10.35,0,17.11,3.81,22.93,12.92
	c3.37,5.28,4.32,5.79,10.64,5.79c5.01,0,8.57-1.15,12.8-4.13c4.97-3.51,6.42-3.87,9.6-2.4c2.05,0.95,5.42,4.4,7.45,7.64
	c2.43,3.74,5.24,7.22,8.38,10.38c4.34,4.17,5.26,4.42,12.91,3.44c4.58-0.58,10.02-0.35,12.27,0.51c6.95,2.69,7.75,6.41,4.83,21.94
	c-2.46,13.04-2.47,14.3-0.04,20.76c1.41,3.78,4.66,9.23,7.2,12.13c5.19,5.93,5.27,6.21,7.61,25.83c2.23,18.69,0.37,31.91-7.37,52.39
	c-3.33,8.81-8.55,22.71-11.61,30.88c-3.06,8.17-7.52,17.24-9.92,20.17l-4.36,5.31l6.26,4.85c8.09,6.26,14.23,16.82,22.91,39.46
	c12.41,32.31,13.52,36.33,13.73,48.69c0.15,9.89-0.81,14.77-6.29,31.51c-8.66,26.53-8.91,36.74-1.11,47.13
	c2.95,3.94,5.36,8.33,5.36,9.76s-3.79,8.97-8.41,16.77c-19.13,32.17-19.07,46.81,0.3,64.83c10.13,9.41,19.07,14.38,24.71,13.71
	c3.82-0.45,4.13-1.06,4.57-9.06c0.54-9.62,4.83-16.05,10.19-15.27c2.68,0.4,3.28,2,4.16,11.11c1.28,13.19,1.97,15.07,5.51,15.07
	c6.34,0,27.68-16.93,31.98-25.38l2.31-4.57l-6.63,4.67c-3.64,2.56-8.3,6.5-10.34,8.73c-4.45,4.87-9.05,5.17-14.36,0.93
	c-5.39-4.32-6.3-10.36-3.32-22.03c3.49-13.63,2.38-24.2-3.02-28.93c-3.52-3.08-5.81-3.6-15.9-3.62c-6.49,0-12.78-0.67-14-1.45
	c-4.12-2.65,0.6-8.96,10.5-14.04c14.36-7.38,15.12-12.6,2.78-19.01c-8.18-4.25-10.19-6.97-10.25-13.97
	c-0.06-8.05,5.46-15.61,13.68-18.69c9.82-3.7,13.86-9.16,13.86-18.82c0-10.7-3.64-17.69-12.89-24.77
	c-15.09-11.54-14.7-10.87-14.7-24.83c0-10.11,0.55-13.09,2.83-15.41c2.1-2.15,3.05-6.14,3.69-15.58c0.55-8.18,1.99-15.09,4.06-19.44
	c5.08-10.66,4.55-13.4-5.36-28.38c-6.34-9.56-8.28-19.28-8.28-41.44c0-9.26-0.64-18.53-1.41-20.6c-1.99-5.32-0.2-23.02,2.43-24.05
	c4.45-1.74,11.33,3.1,16.23,11.43c5.38,9.16,6.51,9.93,7.72,5.26c1.28-5,8.74-3.87,26.4,3.95c40,17.73,84.84,21.34,109.03,8.78
	c13.78-7.15,38.63-29.06,44.99-39.68c5.95-9.92,5.56-10.11-19.19-9.25c-25.07,0.87-40.13-1-56.71-7.04
	c-14.06-5.13-29.61-15.71-38.37-26.15c-3.87-4.62-14.16-14.41-22.87-21.76c-8.7-7.35-16.21-14.42-16.7-15.69
	c-0.58-1.35-1.87-2.25-3.33-2.33c-4.69,0-25.42-9.75-36.77-17.29c-6.28-4.17-14.27-9.06-17.74-10.86
	c-11.04-5.74-53-14.4-79.08-16.34l-14.13-1.05l-1.03-5.68c-1.88-10.39-4.98-17.32-14.31-31.99c-7.71-12.12-9.25-15.67-9.29-21.41
	c-0.03-8.23-3.36-16.09-14.42-34c-5.5-8.94-9.4-17.57-11.63-25.83c-1.85-6.82-6.01-18.54-9.25-26.03
	c-7.39-17.1-9.97-26.48-12.14-44.21c-2.4-19.65-5.09-30.67-12.05-49.32c-3.32-8.9-7.56-23.89-9.43-33.33
	c-4.83-24.49-6.65-29.01-19.14-47.65c-6.15-9.17-11.68-19.05-12.3-21.94c-0.62-2.9-2.99-7.44-5.27-10.09
	c-2.28-2.65-6.82-9.32-10.09-14.82s-7.52-12.37-9.45-15.27c-1.93-2.91-3.51-7.21-3.51-9.56c0-6.64,3.67-8.61,15.18-8.15
	c24.26,0.95,43.03,19.47,67.56,66.65c19.5,37.49,35.5,56.83,55.44,66.98c7.83,3.99,12.88,5.52,18.07,5.52
	c9.16,0,12.48-3.43,13.46-13.89c0.86-9.02-0.88-17.32-9.21-43.81c-4.79-15.25-6.33-22.96-7.08-35.44
	c-1.17-19.28-2.03-20.46-19.4-26.57c-14.95-5.26-15.84-8.01-3.59-11.16c12.13-3.12,25.05,0.21,39.23,10.1
	c9.29,6.49,11.07,7.16,16.95,6.49c5.33-0.61,8.25-2.33,15.4-9.12c8.07-7.66,8.77-8.84,8.19-13.95c-0.7-6.28,3.42-15.91,8.95-20.93
	c4.54-4.12,7.11-10.56,12.42-31.02c7.05-27.24,5.2-49.97-5.58-68.79c-8.63-15.04-49.57-48.15-73.35-59.31
	c-21.73-10.2-22.78-10.29-140.39-11.68c-131.19-1.56-189.56-4.47-206.52-10.32c-24.48-8.41-42.11-23.69-39.52-34.22
	c1.47-6.02,9.7-14.28,17.05-17.14c13.65-5.3,32.93-1.52,70.39,13.78c34.35,14.04,55.17,17.61,94.91,16.25
	c35.3-1.2,63.17-5.5,70.34-10.83c2.62-1.95,2.62-2.14-0.04-4.57c-1.54-1.4-12.78-5.14-25-8.32c-26.78-6.99-41.38-12.61-41.38-15.95
	c0-2.1,2.65-2.29,20.3-1.52c20.53,0.89,43.41,4.81,61.17,10.48c10.99,3.51,35.81,4.31,43.95,1.43c5.36-1.9,6.33-5.9,2.42-9.87
	c-9.81-10-63.69-29.59-105.09-38.23c-26.1-5.45-46.32-6.77-89.84-5.9c-53.55,1.07-75.69,5.04-101.3,18.2
	c-20.91,10.74-45.36,33.36-53.07,49.08c-9.01,18.42-2.93,30.69,23.03,46.51c17.96,10.95,32.02,15.43,62.06,19.82
	c54.39,7.93,92.79,9.81,198.43,9.7c51.6-0.06,92.73,0.55,98.07,1.45c15.88,2.65,34.54,9.45,44.27,16.1
	c11.41,7.82,25.44,24.56,32.77,39.11c4.81,9.56,5.51,12.37,5.59,22.61c0.08,10.07-0.51,12.82-4.31,19.8
	c-5.92,10.86-18.07,24.51-24.1,27.05c-7.18,3.03-24.48-0.06-44.96-7.93c-14.23-5.49-19.35-6.67-33.71-7.73
	c-18.66-1.38-20.76-2.01-48.51-14.51c-28.34-12.77-71.47-27.01-93.09-30.74c-10.32-1.78-20.34,0.23-34.7,6.99
	c-14.5,6.83-22.83,13.54-51.66,41.61c-27.15,26.46-39.48,36.32-54.67,43.71c-27.56,13.43-106.34,58.45-113.65,64.97
	c-10.75,9.57-28.87,31.91-36.49,45c-13.97,23.97-18.29,42.82-19.95,87.02c-1.13,30.1-1.35,31.65-6.12,44.01
	c-5.33,13.8-19.51,38.67-38.67,67.78c-18.01,27.37-30.97,49.15-39.62,66.57c-17.05,34.31-19.97,47.45-21.44,96.1l-1.09,35.87
	l-5.55,16.45c-3.06,9.04-9.43,25.89-14.18,37.43c-17.58,42.77-17.24,40.58-18.87,119.22l-1.2,57.7l-6.42,12.91
	c-3.53,7.09-9.44,17.39-13.14,22.87c-8.49,12.63-10.88,22.76-14.02,59.35c-0.97,11.53-2.01,23.05-3.14,34.56
	c-0.64,5.72-3.01,9.04-20.04,28.07c-32.46,36.27-44.89,55.17-44.89,68.24c0,6.47-0.49,7.34-6.54,11.57
	c-11.88,8.31-28.6,27.78-34.21,39.8c-6.62,14.2-8.18,27.42-4.17,35.31c4.51,8.84,7.5,7.37,20.16-9.88l11.25-15.34l3.69,3.52
	c2.03,1.94,3.69,4.4,3.69,5.47c0,1.07-2.78,7.79-6.18,14.93c-3.42,7.18-5.99,14.72-5.74,16.88c0.58,5.23,5.91,6.02,37.98,5.65
	C829.69,2120.25,833.1,2119.86,839.96,2116.68L839.96,2116.68z M825.72,2032.1c-5.3-2.11-13.2-20.17-11.9-27.22
	c1.12-6.04,2.6-6.47,10.57-3.08c8.27,3.52,12.33,2.88,20.06-3.11c7.54-5.86,9.93-6.54,12.82-3.59c2.71,2.76,2.24,7.61-1.4,14.56
	c-1.84,3.51-3.68,7.03-5.51,10.55C846.07,2028.43,832.71,2034.87,825.72,2032.1L825.72,2032.1z M875.13,1884.91
	c-3.4-3.46-3.76-5.1-3.76-17.03c0-7.26-0.34-14.13-0.75-15.27c-0.41-1.15-0.08-3.13,0.74-4.42c1.25-1.95,2.26-1.5,6.19,2.74
	c3.83,4.13,5.87,5.06,11.04,5.06c4.35,0,7.42-1.03,9.81-3.31c4.68-4.47,8.25-2.86,8.11,3.65c-0.24,10.55-6.86,22.44-15.72,28.3
	C883.05,1889.73,879.93,1889.79,875.13,1884.91z M1362.77,1870.92c-4.06-1.11-8.08-2.72-8.91-3.59c-2.65-2.7-5.19-21.73-3.53-26.52
	c3.23-9.38,14.8-5.04,17.68,6.63c1.67,6.77,1.92,6.99,7.62,6.99c6.78,0,9.07,2.88,9.07,11.4c0,4.76-0.54,5.47-4.79,6.34
	C1373.58,1873.46,1371.5,1873.31,1362.77,1870.92L1362.77,1870.92z M907.09,1741.46c-6.42-2.88-8.68-10.54-7.9-26.75
	c0.72-14.93,6.72-28.87,14.86-34.44l5.11-3.51l3.82,4.63c2.31,2.81,5.29,4.61,7.56,4.61c5.62,0,17.24-6.71,25.87-14.93
	c4.22-4.02,11.57-10.79,16.36-15.04c10.83-9.61,13.54-16.07,13.46-32.04c-0.12-20.7-1.54-25.01-11.26-33.88
	c-9.79-8.95-13.59-16.82-13.61-28.23c-0.03-13.38,6.41-20.89,17.91-20.89c6.33,0,10.73,4.27,18.71,18.16
	c13.15,22.88,32.33,31.74,44.96,20.76c6.04-5.26,8.04-5.64,11.44-2.17c1.97,2,2.4,6.56,2.4,24.85c0,12.32,0.63,24.09,1.41,26.16
	c0.95,2.56,4.15,4.91,10.02,7.33c10.46,4.33,13.8,9.57,12.66,19.87c-0.92,8.35-5.62,13.91-13.6,16.09
	c-8.57,2.35-14.89,0.06-41.13-14.86c-7.93-4.51-16.78-5.08-22.27-1.42c-2.06,1.38-7.26,7.33-11.56,13.21
	c-6.09,8.36-11.17,13.01-23.03,21.1c-16.69,11.38-21.47,16.23-31.2,31.67c-6.96,11.06-15.27,20.38-18.2,20.42
	c-0.98,0-3.17,0.35-4.85,0.76C913.35,1743.34,909.78,1742.67,907.09,1741.46L907.09,1741.46z M1153.31,1411.38
	c-5.48-2.58-13.41-5.45-17.62-6.36c-9.81-2.12-15.46-5.09-18.4-9.66c-2.1-3.27-2.1-4.61,0.06-13.16
	c2.78-11.02,1.35-19.65-4.04-24.61c-2.72-2.5-5.39-2.93-16.48-2.72c-7.61,0.15-16.09,1.31-19.94,2.73
	c-3.69,1.36-6.88,2.47-7.09,2.47c-0.72,0,1.06-14.81,2.48-20.55c1-4.06,3-6.74,6.83-9.15c9.15-5.75,10.41-9.08,9.42-24.74
	c-1.2-18.8,1.15-28.08,7.11-28.19c0.74,0,3.91,2.61,7.05,5.83c3.97,4.06,6.79,9.18,9.22,16.76c5.97,18.57,8.51,22.61,14.23,22.64
	c9.16,0.06,9.54,0.95,9.54,22.92c0,24.01,1.47,27.72,17.43,43.76C1177.65,1414.03,1177.72,1422.9,1153.31,1411.38L1153.31,1411.38z
	 M1402.47,1286.08c-0.56-2.27-0.56-10.33,0-17.91l1.03-13.78l-4.36-2.9c-3.88-2.59-7.77-2.91-35.83-2.95
	c-27.49-0.06-32.26-0.41-37.6-2.97l-6.13-2.92l4.6-1.13c2.53-0.63,11.15-1.22,19.16-1.33c16.82-0.22,23.39-1.75,30.51-7.09
	c19.94-14.97,15.93-33.49-13.75-63.34c-18.49-18.59-21.73-23.69-21.05-33.15l0.47-6.54l7.66,7.88c4.21,4.35,10.06,12.06,13,17.16
	c8.41,14.6,36.31,53.44,46.8,65.13c15.25,17.02,20.95,31.85,18.48,48.11c-1.31,8.61-10.32,19.6-17.16,20.94
	C1404.03,1290.1,1403.37,1289.75,1402.47,1286.08L1402.47,1286.08z M1369.14,1039.23c-2.65-3.03-5.12-6.21-7.4-9.52
	c-1.94-2.88-6.81-9.04-10.81-13.7c-8.74-10.16-9.95-13.78-5.96-17.83c4.1-4.17,21.42-4.23,29.03-0.12
	c7.72,4.19,13.62,16.61,14.82,31.22l0.95,11.46l-4.65-1.04c-3.44-0.77-4.87-0.41-5.55,1.38
	C1378.16,1044.83,1373.42,1043.97,1369.14,1039.23L1369.14,1039.23z M1324.17,819.4c-1.69-0.41-6.31-2.17-10.29-3.88
	c-8.74-3.78-10.85-8.3-5.82-12.44c4.45-3.67,7.91-3.56,15.68,0.47c3.48,1.81,10.53,3.64,15.64,4.08c6.49,0.54,11.05,1.97,15.05,4.71
	c6.3,4.32,6.99,5.81,3.33,7.24C1354.95,820.66,1328.73,820.53,1324.17,819.4L1324.17,819.4z M1008.68,2038.03
	c10.54-5.51,20.25-16.93,28.9-33.99c4.29-8.44,10.22-17.25,14.67-21.81c9.01-9.22,10.87-12.72,15.09-28.46
	c3.97-14.81,10.72-28.72,23.02-47.43c13.92-21.18,20.14-27.19,38.44-37.19c28.87-15.77,30.58-17.88,32.41-39.83
	c0.7-8.57,2.31-17.57,3.55-20.02c2.86-5.64,17.28-18.95,29.01-26.8l9.05-6.04h-42.46c-32.94,0-44.81,0.54-52.96,2.44
	c-5.77,1.33-13.84,2.21-17.93,1.95l-7.42-0.48l-9.55,24.16c-5.24,13.3-9.56,25.54-9.57,27.2c-0.06,5.18-4.9,23.23-7.75,28.96
	c-3.96,7.91-29.97,35.48-36.85,39.06c-3.23,1.68-7.88,3.05-10.32,3.05c-5.38,0-11.45,4.56-13.95,10.48
	c-1.01,2.4-6.68,7.82-12.69,12.14c-13.75,9.9-30.72,25.81-34.99,32.85c-5.09,8.4-7.56,20.32-7.58,36.65
	c-0.02,16.63,3.23,31.08,6.99,31.08c1.27,0,7.21-3.51,13.22-7.79c17.53-12.54,21.1-9.87,10.43,7.79
	c-3.37,5.58-6.13,10.95-6.13,11.93c0,3.04,10.86,5.1,24.51,4.65C998.32,2042.21,1002.36,2041.33,1008.68,2038.03L1008.68,2038.03z
	 M1023.68,1952.98c-9.84-7.32-18.99-16.73-18.99-19.53c0-1.57,3.62-4.42,9.35-7.36l9.34-4.81l6.21,4.18
	c8.45,5.7,15.42,6.38,25.4,2.51c11.15-4.32,12.39-3.58,10.7,6.46c-0.75,4.46-2.2,9.8-3.22,11.88c-2.42,4.9-12.3,9.27-23.56,10.43
	C1030.67,1957.59,1029.47,1957.29,1023.68,1952.98L1023.68,1952.98z M1184.73,1955.8c3.45-0.9,1.79-1.24-6.63-1.38
	c-9.81-0.16-11.16-0.53-10.73-2.92c0.27-1.49,4.08-4.49,8.44-6.63c4.37-2.14,8.51-4.49,9.2-5.2c0.69-0.71,1.25-6.83,1.25-13.6
	c0-14.71,2.11-17.82,13.73-20.01c8.01-1.53,11.56-4.75,11.56-10.53c0-2.67-1.64-4.27-6.77-6.58c-8.44-3.8-11.35-8.45-7.45-11.92
	c1.49-1.32,8.41-7.41,15.38-13.52c11.22-9.84,12.91-12.03,14.74-19.07c4-15.34,7.15-34.78,6.12-37.72c-1.46-4.18-6.86-10-9.27-10
	c-1.12,0-3.41-1.41-5.09-3.11c-2.05-2.08-3.06-2.44-3.06-1.04c0,1.15-4.58,9.74-10.18,19.1c-5.6,9.36-12.95,22.86-16.33,30.01
	c-5.49,11.58-7.16,13.66-15.49,19.41c-23.3,16.07-35.77,36.45-39.16,63.96c-1.59,12.88-0.56,21.39,2.59,21.39
	c1.23,0,5.87-3.16,10.31-7.02c4.43-3.86,9.27-7.02,10.74-7.02c2.38,0,2.56,1.15,1.62,10.65l-1.05,10.65l5.11,1.67
	C1170.25,1957.31,1178.23,1957.47,1184.73,1955.8L1184.73,1955.8z M1663.19,1418.38c2.88-2.25,8.32-8.31,12.05-13.47l6.79-9.39
	l-3.86-4.85c-15.34-19.25-24.87-33.61-32.2-48.47c-4.67-9.46-8.46-18.25-8.42-19.55c0.08-3.78,4.76-8.66,13.96-14.57
	c20.79-13.36,23.06-18.97,23.96-59.38c0.42-19.01,0.02-32.88-1.15-38.98c-2.49-13.07-9.63-27.22-19.1-37.83l-7.99-8.95l-6,1.85
	c-7.34,2.26-18.52,12.98-22.3,21.42c-3.99,8.93-3.52,19.39,1.85,40.63c3.2,12.69,4.7,22.39,4.72,30.44
	c0.02,14.05-0.56,17.72-7.12,45.11c-6.65,27.71-8.62,42.86-8.57,65.94c0.03,20.48,2.05,30.45,7.93,39.2
	C1627.89,1422.61,1650.72,1428.06,1663.19,1418.38L1663.19,1418.38z M370.36,827.64c14.12-7.63,51.46-23.65,82.31-35.33l26.42-10
	v-21.44c0-12.09-0.6-21.44-1.41-21.44c-1.9,0-46.85,18.56-61.97,25.58c-6.64,3.08-12.67,5.61-13.41,5.61
	c-0.76,0-1.35-48.14-1.35-109.94c0-60.47-0.51-109.95-1.14-109.96c-0.64,0-11.23,4.72-23.57,10.53l-22.42,10.55l-0.65,129.43
	c-0.36,71.18-0.4,129.96-0.1,130.6C354.29,834.35,360.9,832.74,370.36,827.64L370.36,827.64z M2148.07,772.56
	c-0.26-30.66-0.95-89.66-1.54-131.09l-1.05-75.34l-19.92-8.48c-10.96-4.67-21.82-8.48-24.14-8.48h-4.21v260.05l6.51,1.75
	c3.58,0.96,14.45,5.19,24.14,9.4s18.31,7.71,19.15,7.79C2148.01,828.26,2148.38,809.07,2148.07,772.56L2148.07,772.56z
	 M2063.28,606.72l0.22-72.66l-17.24-5.81c-9.47-3.2-18.43-6.47-19.89-7.26c-1.47-0.79-4.74-1.45-7.29-1.45h-4.62l-0.17,65.88
	c-0.1,36.24-0.08,66.76,0.06,67.84c1.11,8.67-6.5-8.41-33.61-75.44c-23.47-58.03-32.08-77.71-34.42-78.71
	c-5.77-2.49-34.27-9.21-39.01-9.21h-4.7v261.99h3.91c3.2,0,33.15,7.02,43.98,10.31c2.55,0.77,2.65-3.32,1.72-79.21
	c-0.67-55.31-0.49-79.55,0.62-78.47c0.88,0.86,17.78,41.53,37.57,90.4l35.99,88.85l17.4,5.55l17.4,5.55l0.94-57.75
	C2062.66,705.38,2063.17,646.68,2063.28,606.72L2063.28,606.72z M500.04,776.09c2.5-1.26,11.36-4.43,19.68-7.05
	c8.32-2.6,15.22-4.9,15.34-5.09c0.12-0.2,3.55-17.03,7.62-37.41l7.41-37.05l7.03-2.11c24.18-7.25,40.29-10.77,41.36-9.02
	c0.62,1.01,4.12,15.35,7.78,31.85s7.1,30.54,7.65,31.19c0.54,0.64,10.95-1.19,23.12-4.09c18.21-4.33,22.05-5.72,21.66-7.86
	c-0.26-1.43-5.99-21.69-12.74-45.03c-6.76-23.35-22.3-77.18-34.52-119.63c-12.22-42.45-22.51-77.48-22.86-77.83
	c-0.35-0.36-7.71,1.2-16.36,3.46s-17.42,4.31-19.5,4.54c-3.7,0.41-4.15,2.13-22.48,85.41c-10.29,46.75-24.19,109.78-30.89,140.08
	c-12.07,54.6-12.16,55.1-8.93,56.43C494.88,778.7,494.9,778.7,500.04,776.09L500.04,776.09z M557.26,655.53
	c0-2.47,15.32-78.94,16.31-81.42c1.12-2.78,3.03,4.26,11.97,44.05l6.56,29.24l-6.31,1.65c-6.61,1.73-21.26,5.77-25.85,7.13
	C558.47,656.62,557.25,656.33,557.26,655.53L557.26,655.53z M1869.44,610.47l0.92-129.72l-8.76-1.79
	c-8.3-1.73-16.59-3.52-24.87-5.36c-8.84-1.96-17.28-3.54-18.77-3.51c-2.53,0.06-2.7,5.74-3.06,93.75
	c-0.38,90.8,0.15,166.46,1.15,167.51c1.15,1.2,50.65,10.57,51.51,9.74C1868.09,740.61,1868.94,681.82,1869.44,610.47L1869.44,610.47
	z M703.72,723.05c10.78-2.15,19.8-3.9,20.05-3.9s0.63-29.65,0.85-65.88c0.29-49.14,0.82-64.9,2.07-61.99
	c0.92,2.15,11.2,30.04,22.85,61.99c11.65,31.95,21.94,58.08,22.85,58.06c4.95-0.07,4.5,1.3,36.43-109.14
	c4.34-15,8.46-27.95,9.16-28.76c0.7-0.81,1.28,28.13,1.28,64.33c0,36.19,0.51,65.8,1.15,65.79c1.84,0,35.92-4.52,41.07-5.43
	l4.68-0.83l-0.52-125.9c-0.28-69.25-0.88-128.27-1.33-131.14c-0.77-4.89-1.12-5.17-5.7-4.37c-13.12,2.29-35.12,4.42-38.59,3.76
	c-2.15-0.42-4.18-0.3-4.52,0.26c-0.34,0.57-10.01,31.52-21.48,68.8s-21.6,70.1-22.48,72.95c-0.9,2.85-1.92,4.87-2.28,4.49
	c-0.37-0.37-10.31-29.01-22.09-63.65c-11.79-34.63-21.7-63.75-22.03-64.7c-0.42-1.2-6.18-0.61-18.75,1.91
	c-9.98,2-20.27,3.65-22.87,3.67l-4.74,0.06l-1.01,49.37c-0.56,27.16-1.01,86.06-1.01,130.88c0,87.14-0.4,81.89,6.37,83.12
	c0.55,0.1,9.82-1.58,20.6-3.72L703.72,723.05L703.72,723.05z M1781.17,593.91l0.4-130.45l-3.46-0.75
	c-14.93-3.26-37.62-7.11-41.77-7.11h-5.05l0.85,50.69c0.82,49.07,0.76,50.68-2.07,50.68c-1.6,0-14.29-1.74-28.2-3.88
	c-13.89-2.13-25.79-3.88-26.42-3.9c-0.64,0-1.15-23.16-1.15-51.45v-51.43l-3.44-0.72c-6.83-1.44-38.79-5.59-42.91-5.58h-4.21v261.42
	l24.14,3.2c13.27,1.76,24.55,2.96,25.06,2.67c0.51-0.29,0.59-27.32,0.17-60.06l-0.77-59.54l3.67,0.87
	c2.02,0.47,14.87,2.45,28.57,4.38l24.9,3.51V717.6l4.98,0.08c2.74,0.06,13.59,1.71,24.14,3.69c10.54,1.99,19.84,3.46,20.69,3.3
	c1.01-0.2,1.67-45.35,1.92-130.75v-0.01L1781.17,593.91z M1544.53,696.54c23.28-6.17,38.41-20.98,45.66-44.64
	c2.54-8.3,2.88-14.71,2.88-52.97V555.4h-70.48v7.56c0,4.16-0.45,12.94-0.99,19.5l-0.99,11.93h29.86l-0.53,20.78
	c-0.5,19.42-0.8,21.19-4.61,27.05c-11.32,17.41-34.74,14.33-48.42-6.35c-9.9-14.98-10.33-18.48-10.33-84.35
	c0-58.01,0.08-59.41,3.36-65.65c4.08-7.76,12.82-15.85,18.51-17.12c2.3-0.51,4.99-1.19,5.99-1.49c3.61-1.12,12.98,2.67,18.25,7.38
	c6.65,5.94,11.11,14.55,12.37,23.84l0.94,7.02h22.78c26.02,0,24.16,1.43,20.57-15.78c-7.4-35.53-36.02-59.07-71.83-59.07
	c-35.35,0-64.33,22.41-74.87,57.89c-1.54,5.17-2.03,21.77-2,68.43c0.03,68.05,0.88,76.19,9.95,94.66
	c5.81,11.83,18.39,26.05,29.54,33.38c8.28,5.45,22.66,11.24,31.72,12.79C1520.77,699.32,1536.36,698.72,1544.53,696.54
	L1544.53,696.54z M964.84,688.02c52.49-4.49,55.9-5.46,69.21-19.94c24.49-26.65,27.9-81.85,6.41-103.94
	c-4.81-4.95-14.89-10.21-19.69-10.26c-1.99,0-0.71-1.22,3.61-3.4c23.14-11.65,29.99-60.29,13.48-95.66
	c-6.42-13.75-15.21-23.1-26.81-28.5l-8.63-4.02l-25.31,1.91c-25.9,1.95-75.6,6.59-76.21,7.11c-0.19,0.15-0.81,59.13-1.41,131.05
	l-1.06,130.76l14.42-0.95C920.8,691.65,944.19,689.78,964.84,688.02L964.84,688.02z M944.53,651.19
	c-0.64-0.65-1.15-17.44-1.15-37.33V577.7l22.6-0.9l22.6-0.88l5.05,4.93c2.78,2.71,6.91,8.79,9.2,13.52
	c3.58,7.41,4.15,10.53,4.15,22.62c0,12.55-0.45,14.82-4.27,21.44c-6.5,11.25-10.4,12.72-35.57,13.37
	C955.34,652.11,945.17,651.8,944.53,651.19L944.53,651.19z M952.16,537.1l-8.83-0.56l0.41-33.84l0.41-33.84l20.89-0.43l20.89-0.43
	l7.08,8.01c16.64,18.84,14.77,49.31-3.6,58.74C982.42,538.33,976.91,538.68,952.16,537.1L952.16,537.1z M1173.67,682.54
	c31.97-6.89,53.96-29.89,57.7-60.35c0.77-6.28,1.24-39.49,1.05-73.8c-0.4-68.8-0.67-71.04-10.65-90.45
	c-5.84-11.34-20.46-26.57-31.04-32.32c-10.15-5.51-23.58-9.36-35.57-10.18c-26.79-1.83-56.17,18.35-70.93,48.73
	c-10.5,21.6-11.04,27.06-9.81,98.22c1.17,66.87,1.79,72.5,9.54,87.01C1098.13,675.9,1137.34,690.38,1173.67,682.54L1173.67,682.54z
	 M1140.87,642.15c-8.45-3.08-14.74-8.27-19.03-15.73l-3.89-6.77l-0.32-65.26l-0.32-65.25l4.23-8.77
	c10.69-22.16,36.15-26.18,54.51-8.6c6.98,6.67,11.02,15.24,12.55,26.57c0.7,5.23,1.49,34.07,1.75,64.09
	c0.46,54.19,0.44,54.64-3.04,61.86C1179.51,640.47,1158.49,648.56,1140.87,642.15z M1416.86,681.3c0-1.08-10-27.38-22.22-58.47
	c-12.22-31.08-22.23-57.13-22.23-57.89s2.56-1.88,5.68-2.47c22.71-4.34,35.63-26.96,35.66-62.42c0.03-33.61-13.86-64.22-34.8-76.71
	c-7.85-4.68-20.32-5.84-79.71-7.5l-37.16-1.03v261.88l4.97,0.77c2.74,0.42,13.46,0.89,23.82,1.03l18.84,0.26l-0.22-55.82
	l-0.22-55.82l12.86-0.45l12.86-0.45l13.71,44.89c7.54,24.69,15.5,50.5,17.68,57.36l3.97,12.48l16.73,0.44
	c9.22,0.24,17.78,0.69,19.05,0.99C1411.64,683.67,1416.86,683.15,1416.86,681.3L1416.86,681.3z M1309.1,530.99
	c-0.56-0.58-1.03-16.98-1.03-36.47v-35.41l18.88-1.11c20.89-1.22,26.98,0.17,35.11,8.1c13.32,12.98,12.57,48.8-1.28,61.18
	l-5.32,4.74h-22.66C1320.32,532.02,1309.66,531.56,1309.1,530.99L1309.1,530.99z"/>
<path class="st4" d="M1212.43,2658.73c-51.19-31.76-178.86-135.65-264.6-215.32C807.12,2312.66,666,2137.47,569.82,1974.12
	C364.73,1625.8,258.19,1219.63,245.64,738.34c-3.67-140.55-3.41-144.99,9.93-173.05c17.68-37.2,33.56-48.13,117.69-81.03
	c232.29-90.82,477.52-132.84,813.36-139.36c379.18-7.37,692.68,38.38,945,137.92c87.45,34.49,103,45.12,120.77,82.51
	c13.38,28.16,13.61,32.32,9.87,176.16c-20.55,790.41-291.68,1376.63-844.92,1826.79c-67.1,54.6-137.11,104.38-154.54,109.89
	C1254.18,2680.9,1238.33,2674.79,1212.43,2658.73L1212.43,2658.73z M840.64,2119.6c9.59-4.45,16.63-15.89,21.82-35.48
	c4.21-15.89,11.93-33.97,17.17-40.18c5.76-6.82,10.54-27.57,12.1-52.65c2.29-36.62,5.29-44.88,26.06-71.65
	c13.39-17.26,27.74-45.52,33.42-65.84c5.47-19.59,14.24-44.03,19.5-54.31c39.29-77.01,64.66-121.64,69.14-121.64
	c13.52,0,24.34,29.58,24.34,66.57c0,29.16,2.45,40.24,9.82,44.45c8.77,5,8.86,7.53,0.86,23.7c-4.93,9.95-10.91,26.34-13.29,36.43
	c-5.92,25.1-25.55,51.78-46,62.55c-9.36,4.95-29.81,21.64-45.44,37.11c-22.53,22.3-28.39,32.36-28.31,48.63
	c0.13,27.49,8.94,41.86,19.24,31.37c12.33-12.56,17.93-8.93,13.55,8.81c-3.93,15.97-3.35,16.41,16.41,12.39
	c25.35-5.17,48.3-20.02,52.5-33.99c1.74-5.8,5.61-14.77,8.57-19.91s14.31-28.54,25.21-52c13.55-29.2,28.43-49.85,47.14-65.47
	c15.04-12.56,31.35-32.6,36.25-44.53c14.46-35.27,56.56-65.38,56.56-40.46c0,14.62-23.68,58.75-41,76.39
	c-21.77,22.17-38.54,51.91-38.58,68.38c-0.02,14.45,8.59,18.84,15.29,7.8c6.67-10.99,14.27-6.67,10.96,6.24
	c-2.69,10.48-0.19,12.47,15.67,12.47c31.46,0,61.06-18.05,65.61-40.01c2.19-10.58,9.29-28.17,15.8-39.07
	c7.74-12.97,10.48-25.25,7.94-35.54c-4.14-16.79,7.09-60.03,15.59-60.03c6.33,0,28.49,46.5,34.19,71.73
	c2.32,10.29,9.63,24.78,16.24,32.21c11.19,12.56,16.08,13.27,71.14,10.13c56.97-3.25,59.69-4.08,74.43-22.62
	c11.09-13.95,16.25-29.6,18.77-56.91c4.41-48.13,25.17-80.88,72.84-114.96l35.65-25.48l8.78,13.96
	c4.83,7.68,15.29,30.12,23.24,49.87c13.27,33,13.82,38.41,6.68,66.78c-4.27,16.98-5.93,36.74-3.69,43.93
	c2.27,7.27-0.74,26.67-6.8,43.82l-10.86,30.76l14.48,15.71c16.44,17.82,27.79,20.01,32.93,6.34c4.67-12.38,16.15-12.01,16.15,0.51
	c0,13.27,12.03,8.41,25.86-10.47c10.57-14.44,10.68-17.13,1.6-43.27c-5.32-15.33-8.43-32.71-6.93-38.62
	c1.51-5.92,0.01-22.76-3.33-37.43c-7.63-33.52-7.22-72.77,1.19-114.05c5.91-29,5.08-35.29-8.73-65.65
	c-8.4-18.46-14.12-34.74-12.71-36.18c1.4-1.43,13,1.58,25.76,6.7c59.36,23.78,105.75,18.35,133.92-15.65l16.7-20.16l-36.15-3.14
	c-41.09-3.58-42.97-4.51-86.34-43.2c-30.57-27.26-31.69-29.4-28.41-53.78c1.94-14.39-1.09-46.02-6.99-73
	c-9.57-43.87-9.63-50.26-0.67-81.65c5.35-18.74,9.72-42.31,9.72-52.39c0-30.14-16.48-76.66-35.89-101.26
	c-10.02-12.69-21.21-34.37-24.85-48.18c-3.65-13.8-13.4-35.25-21.67-47.66c-14.17-21.28-14.52-23.82-6.11-44.32
	c4.91-11.96,8.92-37.18,8.92-56.04c0-29.79-2.6-37.31-19.89-57.38c-37.52-43.53-55.08-47.5-234.2-52.89
	c-206.77-6.22-239.34-14.12-207.22-50.28c13.14-14.8,34.58-14.42,79.21,1.43c48.75,17.29,108.41,21.58,143.32,10.32
	c29.98-9.68,30.53-9.16-21.43-20.16c-8.41-1.78-15.32-6.36-15.32-10.17c0-4.66,9.52-5.64,29.09-2.99
	c80.05,10.84,93.37,11.64,93.37,5.56c0-10.13-53.77-30.91-109.86-42.49c-90.2-18.61-177.14-3.19-218.28,38.72
	c-25.28,25.76-28.17,53.12-7.08,67.13c26.52,17.62,70.11,23.01,225.81,27.97c142.39,4.53,159.47,6.24,184.22,18.44
	c30.44,15.02,43.66,34.61,42.86,63.51c-0.67,24.01-16.44,49.6-30.56,49.6c-23.9-0.01-103-20.21-159.01-40.61
	c-32.86-11.97-65.26-21.75-71.99-21.73c-15.21,0.04-33.07,11.97-85.99,57.49c-22.83,19.63-63.45,47.32-90.27,61.54
	c-86.82,46.02-113.63,82.6-125.68,171.61c-6.54,48.21-14.64,67.48-51.98,123.68c-31,46.64-52.95,109.33-53.12,151.71
	c-0.08,20.46-7.26,53.24-19.12,87.32c-15.71,45.12-19.23,65.36-20.37,116.94c-1.18,53.49-3.6,66.51-16.97,91.45
	c-9.63,17.96-17.25,44.82-19.93,70.26c-3.94,37.52-6.99,44.35-34.38,76.96c-16.53,19.68-30.09,39.19-30.12,43.36
	s-8.37,17.23-18.53,29.02c-23.36,27.1-34.81,58.19-25.08,68.09c5.17,5.27,9.35,3.56,16.41-6.71c13.43-19.53,21.13-17.18,15,4.59
	c-3.52,12.52-2.89,19.38,1.97,21.53C787.68,2133.52,822.5,2128.02,840.64,2119.6L840.64,2119.6z M1309.25,811.09
	c-17.18-11.07-0.8-13.97,25.48-4.5l26.4,9.51l-21.43,0.4C1327.92,816.72,1314.21,814.28,1309.25,811.09L1309.25,811.09z
	 M425.88,803.48c47.45-17.62,50.51-19.87,50.51-36.88c0-9.97-0.95-18.12-2.1-18.12c-1.16,0-18.12,5.61-37.7,12.47
	c-19.58,6.86-36.54,12.48-37.7,12.48c-1.16,0-2.1-49.12-2.1-109.16s-0.97-109.16-2.15-109.16c-1.19,0-10.83,3.08-21.43,6.84
	l-19.28,6.84v131.05c0,122.3,0.7,130.75,10.72,126.72C370.55,824.18,398.1,813.79,425.88,803.48L425.88,803.48z M2154.03,699.19
	V568.8l-19.29-6.84c-10.6-3.76-20.24-6.84-21.42-6.84c-1.19,0-2.15,58.54-2.15,130.09v130.09l19.89,6.51
	c7.17,2.31,14.31,4.69,21.43,7.14C2153.34,829.27,2154.03,770.89,2154.03,699.19z M2060.78,663.15l-1.65-128.98l-16.84-4.58
	l-16.84-4.58l-0.1,69.63c-0.1,79.8-0.72,79.57-37.39-14.57c-26.87-68.99-35.61-81.08-58.59-81.08h-14.14v127.86
	c0,98.1,1.78,127.89,7.65,127.97c4.21,0.04,13.76,1.75,21.23,3.79c13.42,3.65,13.61,2.79,15.31-72.25l1.73-75.96l33.48,85.09
	c18.42,46.81,37.7,87.61,42.86,90.68C2061.84,800.68,2062.51,797.2,2060.78,663.15L2060.78,663.15z M532.3,769.65
	c2.13-1.26,5.77-17.73,8.08-36.59c4.73-38.5,4.33-38,34.8-43.82l22.17-4.24l7.41,31.47c7.27,30.87,7.78,31.4,26.76,27.72
	c10.64-2.06,20.47-4.72,21.85-5.92c3.08-2.67-54.99-234.71-60.06-239.99c-2.01-2.1-12.1-1.45-22.42,1.44
	c-18.61,5.2-18.94,6.05-41.62,106.73c-10.32,45.93-20.75,91.84-31.29,137.73l-8.43,36.27l19.44-4.25
	C519.69,773.86,530.17,770.93,532.3,769.65L532.3,769.65z M558.84,643.08c2.03-6.5,5.83-24.04,8.43-38.97l4.74-27.16l8.07,33.45
	c6.79,28.15,6.73,34.31-0.36,38.88C564.95,658.81,554.87,655.82,558.84,643.08L558.84,643.08z M1872.38,614.74
	c0-70.13-2.06-128.69-4.6-130.12c-2.53-1.45-12.16-4.47-21.43-6.73l-16.84-4.1v261.39l16.84,2.6c9.26,1.43,18.91,3.01,21.43,3.52
	C1870.31,741.82,1872.38,684.86,1872.38,614.74L1872.38,614.74z M716.21,726.6c5.96-2.32,7.62-14.51,6.17-45.41
	c-1.09-23.23-1.09-53.39,0-67c1.83-22.95,3.72-19.55,25.8,46.5L772,731.94l22.1-79.91l22.1-79.92l1.73,70.06
	c1.5,60.22,3.07,69.53,11.22,66.34c5.22-2.04,14.77-3.7,21.23-3.7c11.2,0,11.75-6.01,11.75-129.73V445.34l-20.9,2.49
	c-20.47,2.44-21.23,3.58-37.08,56.44c-8.91,29.67-19.78,65.18-24.19,78.91l-8.01,24.95l-19.93-65.5
	c-10.96-36.02-22.08-67.88-24.72-70.8c-2.63-2.92-13.33-3.4-23.76-1.06l-18.97,4.25v127.37c0,121.4,0.55,127.37,11.75,127.37
	C702.77,729.76,711.72,728.33,716.21,726.6L716.21,726.6z M1779.14,594.1l-1.67-129.43l-16.83-1.97l-16.84-1.97v100.76l-26.03-3.7
	c-42.7-6.09-41.34-4.14-41.34-58.62c0-35.88-2.16-50.12-7.64-50.18c-4.21-0.04-13.86-1.78-21.43-3.85l-13.78-3.76v262.06l21.43,2.54
	l21.43,2.54v-58c0-64.25-2-61.82,44.4-54l22.96,3.86v57.99c0,49.98,1.47,58.37,10.72,60.83
	C1781.52,726.41,1780.87,729.73,1779.14,594.1L1779.14,594.1z M1008.52,683.92c25.15-12.24,39.4-38.07,39.9-72.33
	c0.35-24-2.58-34.26-12.75-44.62c-13.11-13.37-13.13-13.6-1.55-32.93c14.05-23.48,14.89-48.1,2.47-72.57
	c-11.56-22.76-41.09-31.02-91.8-25.64l-36.74,3.89l-1.67,130.07l-1.65,130.07l44.52-4.38
	C973.73,693.08,1000.4,687.87,1008.52,683.92L1008.52,683.92z M947.84,618.59c0-32.45,1.6-37.5,12.91-40.51
	c34.28-9.13,59.1,25.44,41.42,57.68c-6.55,11.95-14.59,16.53-31.56,17.97l-22.77,1.94V618.59L947.84,618.59z M947.84,508.17v-34.15
	h20.21c24.48,0,34.9,9.45,34.9,31.67c0,19.83-8.35,27.6-35.21,32.79l-19.9,3.84L947.84,508.17L947.84,508.17z M1570.21,682.95
	c16.21-10.83,26.56-44.22,26.61-85.93c0.04-32.8-0.49-33.24-44.36-37.52l-29.08-2.85v21.07c0,18.31,2,21.07,15.31,21.07
	c12.35,0,15.3,3.08,15.3,16c0,36.96-29.17,53.4-51.04,28.78c-30.02-33.78-23.32-162.47,9-172.91c13.48-4.36,35.92,12,35.92,26.18
	c0,5.43,7.56,8.39,21.43,8.39c24.31,0,27.04-8.29,12.28-37.35c-12.95-25.51-32.52-37.5-61.27-37.5
	c-52.55,0-76.34,39.95-76.12,127.87c0.13,58.12,8.88,94.82,27.6,115.9C1493.43,698.49,1540.6,702.72,1570.21,682.95z
	 M1191.47,676.33c7.53-5.37,19.69-21.51,27.04-35.86c19.2-37.54,19.57-131.78,0.69-173.79c-12.88-28.63-37.83-48.78-60.42-48.78
	c-21.41,0-50.25,20.08-63.59,44.27c-28.46,51.58-22.89,165.73,10.02,205.59c12.8,15.5,19.61,18.34,43.86,18.34
	C1165.22,686.1,1183.77,681.82,1191.47,676.33L1191.47,676.33z M1133.2,631.82c-7.91-12.29-11.35-32.17-12.68-73.29
	c-1.56-48.29,0.01-59.42,10.87-77.12c15.85-25.83,35.72-25.03,49.06,1.97c13.8,27.94,12.73,126.11-1.61,148.42
	C1164.99,653.32,1147.05,653.33,1133.2,631.82L1133.2,631.82z M1309.09,627.97c0-52.68,0.56-54.92,13.1-53.01
	c10.43,1.58,16.96,13.13,32.02,56.57l18.91,54.58h45.78l-20.1-58.79l-20.12-58.79l16.44-15.8c20.07-19.3,26.32-47.41,17.75-79.81
	c-9.55-36.12-33.52-48.72-92.82-48.75l-47.21-0.03l-1.77,128.4c-0.97,70.63-1.31,128.86-0.75,129.43c0.56,0.56,9.52,1.03,19.89,1.03
	h18.88v-55.01H1309.09z M1313.68,532.79c-2.53-2.59-4.59-20.05-4.59-38.8v-34.08l25.8,3.52c36.66,5,52.19,30.81,33.87,56.32
	C1360.51,531.25,1321.24,540.54,1313.68,532.79L1313.68,532.79z M165.09,704.81c0-8.57,1.4-12.08,3.1-7.79
	c1.7,4.29,1.7,11.31,0,15.6C166.48,716.9,165.09,713.38,165.09,704.81L165.09,704.81z M165.96,648.66c0-18.85,1.15-26.58,2.55-17.14
	c1.4,9.43,1.4,24.87,0,34.31C167.1,675.27,165.96,667.54,165.96,648.66L165.96,648.66z"/>
<path class="st5" d="M1194.93,2628.39c-150.48-109.45-338.28-287.32-443.83-420.35c-318.83-401.86-469.83-854.17-492.47-1475.15
	c-6.02-165.05,2.32-185.32,91.97-223.55c234.43-99.98,535.87-149.97,903.39-149.83c277.02,0.11,470.47,21.92,682.69,76.98
	c96.16,24.95,230.81,72.57,264.86,93.66c25.43,15.75,42.84,44.94,48.24,80.88c5.38,35.83-6.86,288.53-19.34,399.4
	c-64.54,572.87-271.06,1016.2-646.12,1387.01c-120.47,119.11-302.95,265.9-330.52,265.9
	C1247.87,2663.36,1221.38,2647.63,1194.93,2628.39L1194.93,2628.39z M841.89,2120.98c14.42-8.95,20.69-18.39,23.84-35.84
	c2.36-13.02,9.4-30.38,15.64-38.56c8.31-10.86,11.36-25.4,11.36-53.9c0-36.4,1.66-41.06,24.67-69.33
	c16.91-20.77,29.26-45.44,39.25-78.44c8.01-26.48,19.98-55.95,26.6-65.5c6.61-9.54,20.68-34.89,31.26-56.33
	c10.57-21.44,21.61-38.98,24.52-38.98c13.01,0,21.56,21.82,20.28,51.74c-1.63,38.23,2.69,54.3,14.62,54.3
	c7.73,0,7.67,2.47-0.41,18.39c-5.14,10.13-9.34,21.87-9.34,26.1c0,19.07-27.1,62.15-46.94,74.64
	c-11.86,7.47-27.72,19.51-35.23,26.75c-8.72,8.31-17.72,16.32-26.98,24.01c-12.41,10.12-16.48,27.53-13.48,57.76
	c1.78,18,10.95,25.81,19.76,16.84c11.56-11.77,18.24-8.75,11.02,4.99c-5.93,11.31-4.66,12.47,13.56,12.45
	c23.05-0.03,59.92-20.57,59.92-33.38c0-8.62,43.32-96.5,58.45-118.58c4.4-6.4,16.49-16.91,26.89-23.35
	c10.4-6.44,23.58-22.26,29.29-35.14c13.75-31.06,31.87-51.5,45.63-51.5c6.15,0,11.18,1.47,11.18,3.29
	c0,10.55-37.66,76.82-45.37,79.83c-11.45,4.47-42.13,64.82-37.15,73.03c4.81,7.92,21.29,7.74,21.29-0.23c0-3.43,2.67-6.24,5.93-6.24
	s4.23,4.49,2.17,9.99c-5.36,14.24,8.12,20.38,32.45,14.79c31.87-7.33,51.28-22.75,51.28-40.76c0-8.64,5.9-23.84,13.11-33.77
	c10.04-13.82,12.27-23.37,9.5-40.71c-3.54-22.24,5.14-53,14.95-53c7.08,0,21.12,29.49,29.72,62.37
	c11.98,45.91,16.69,48.55,86.52,48.55c46.36,0,63.02-2.22,68.53-9.13c4-5.02,12.58-15.03,19.06-22.24
	c8.42-9.38,12.06-23.31,12.75-48.84c0.82-29.8,4.43-40.59,21.9-65.34c26.17-37.11,77.19-74.53,88.53-64.94
	c4.33,3.65,15.19,25.3,24.15,48.1c14.77,37.56,15.61,43.95,8.96,68.11c-4.04,14.66-5.86,34.46-4.08,43.99
	c1.79,9.53-0.64,26.79-5.38,38.36c-12.18,29.73-10.81,42.81,6.41,60.34c18.64,19,26.71,19.3,33.54,1.28l5.33-14.04l5.77,15.29
	l5.78,15.28l16.25-16.55c18.33-18.68,20.3-34.71,7.4-60.14c-4.87-9.59-7.27-23.61-5.34-31.13c1.94-7.54,0-30.6-4.31-51.27
	c-6.35-30.49-6.36-47.23-0.01-88.75c7.4-48.48,7.13-52.46-5.2-75.9c-19.68-37.41-17.37-41,17.68-27.44
	c53,20.52,108.76,11.98,130.77-20.04c15.41-22.41,12.84-30.73-8.16-26.45c-32.52,6.63-58.45-3.04-94.61-35.27l-34.79-31.01
	l-3.14-54.63c-3.29-57.35-3.46-90.7-0.9-181.48c1.56-54.92,1.47-55.26-22.69-92.01c-13.34-20.28-28.79-50.31-34.33-66.72
	c-5.54-16.41-16.2-36.47-23.68-44.59c-12.95-14.04-13.13-15.66-3.83-33.99c29.2-57.53,11.76-114.29-45.02-146.48l-33.15-18.79
	l-156.65-4.96c-198.69-6.29-236.17-13.62-220.66-43.16c10.18-19.36,31.9-20.14,85.04-3.04c53.89,17.34,113.08,21.08,146.41,9.24
	c22.42-7.96,19.96-18.1-4.4-18.1c-9.26,0-22.18-4.36-28.72-9.68c-11.13-9.06-10.33-9.47,12.61-6.34
	c74.94,10.19,101.03,11.27,101.03,4.18c0-4.02-11.71-12.39-26.03-18.59c-88.62-38.4-200.96-42.59-265.25-9.87
	c-32.64,16.61-63.85,49.09-63.85,66.45c0,11.5,29.86,35.43,52.8,42.33c13.06,3.92,95.38,9.86,182.93,13.19
	c171.86,6.54,200.7,11.87,223.41,41.29c16.52,21.39,15.83,53.07-1.61,73.71L1569,1024l-47.71-10.04
	c-26.24-5.52-71.65-18.78-100.88-29.46c-91.7-33.49-92.16-33.41-164.85,28.45c-24.57,20.92-72.71,53.64-106.98,72.72
	c-87.19,48.54-104.77,76.51-118.27,188.02c-2.53,20.88-12.57,43.39-34.8,77.97c-46.91,72.99-60.15,106.7-66.29,168.77
	c-3.19,32.13-13,76.25-23.92,107.51c-15.43,44.13-18.55,62.55-18.61,109.92c-0.07,48.44-2.29,60.98-14.9,84.21
	c-8.15,15.02-16.57,41.33-18.7,58.49c-6.58,52.87-8.7,58.11-36.44,89.92c-14.8,16.98-28.91,37.39-31.35,45.33
	c-2.44,7.95-12.29,23.62-21.88,34.84c-19.47,22.73-27.2,45.78-20.88,62.24c3.67,9.55,6.13,8.58,19.59-7.78l15.4-18.71l-3.91,23.39
	l-3.89,23.39l26.3-0.03C811.27,2133.13,830.54,2128.03,841.89,2120.98L841.89,2120.98z M1311.89,810.44
	c-6.35-10.47-1.38-11.01,21.68-2.35l21.43,8.05l-19.55,0.47C1324.72,816.87,1314.11,814.1,1311.89,810.44L1311.89,810.44z
	 M374.47,1345.7c-28.65-149.74-47.53-319.65-56.99-513.03c-9.96-203.4-10.19-205.74-21.63-223.55c-5.87-9.13-13.11-16.6-16.09-16.6
	c-17.73,0,5.38,353.83,35.05,536.42c17.01,104.69,55.17,261.98,63.58,261.98C380.99,1390.93,379.23,1370.58,374.47,1345.7
	L374.47,1345.7z M482.49,765.63c0-12.87-0.94-23.39-2.09-23.39c-1.15,0-18.14,5.63-37.75,12.49c-19.6,6.87-37.05,11.05-38.79,9.28
	c-1.74-1.77-4.4-49.49-5.92-106.05c-1.52-56.56-4.98-102.84-7.69-102.84s-12,2.74-20.64,6.08l-15.71,6.08v267.94l64.27-23.1
	l64.27-23.1L482.49,765.63L482.49,765.63z M2149.55,566.91c-2.58-2.57-12.29-6.58-21.55-8.91l-16.84-4.24v263.29l19.89,8.28
	l19.89,8.27l1.66-131C2153.53,630.54,2152.15,569.48,2149.55,566.91L2149.55,566.91z M2068.31,667.76
	c0-71.84-2.06-131.86-4.6-133.37c-2.53-1.52-13.81-4.77-25.08-7.24l-20.49-4.47l2.11,63.01c1.18,34.65,0.75,62.99-0.93,62.96
	c-1.69-0.03-14.81-30.2-29.17-67.06c-31.95-82.07-30.65-80.05-55.03-85.44l-19.9-4.4v131.11c0,72.11,2.06,132.3,4.6,133.74
	c2.53,1.44,12.16,4.47,21.43,6.72l16.84,4.1v-73.09c0-40.2,2.3-70.43,5.11-67.17s18.44,40.58,34.73,82.93
	c28.83,74.96,37.12,86.57,62.72,87.89C2066.54,798.28,2068.31,768.3,2068.31,667.76L2068.31,667.76z M518.12,779.12
	c17.02-6.04,19.84-10.68,26.08-43.02c6.4-33.15,8.58-36.57,25.46-40c27.66-5.64,27.8-5.55,32,19.75c6.02,36.3,9.6,39.52,35.72,32.17
	c12.48-3.51,22.68-7.86,22.68-9.68s-10.65-43.09-23.66-91.72c-13.02-48.62-27.34-103.23-31.83-121.36
	c-7.99-32.27-8.56-32.89-26.85-28.97c-10.27,2.2-20.67,5.86-23.09,8.14c-4.44,4.18-65.89,259.11-65.96,273.66
	C488.62,787.65,493.61,787.83,518.12,779.12L518.12,779.12z M564.47,635.02c2.06-10.51,3.75-23.52,3.75-28.92
	c0-15.75,10.22-0.19,14.21,21.64c2.97,16.25,1.41,20.19-9.06,22.99C562.09,653.74,561.13,652.04,564.47,635.02L564.47,635.02z
	 M2239.21,658.03c0.38-44.95-3.82-71.73-11.25-71.73c-2.33,0-9.19,3.69-15.25,8.2c-10.54,7.85-10.56,11.1-0.6,76.41
	c5.74,37.52,11.98,72.42,13.91,77.57C2231.05,761.99,2238.76,709.08,2239.21,658.03L2239.21,658.03z M1872.38,615.15V481.82
	l-19.35-3.94c-10.64-2.17-19.89-3.22-20.58-2.34c-0.68,0.88-3.06,59.56-5.27,130.38l-4.04,128.78l23.1,6.25
	c12.69,3.43,23.78,6.54,24.62,6.88C1871.68,748.19,1872.38,688.48,1872.38,615.15L1872.38,615.15z M713.64,732.06
	c13.02-3.56,13.8-7.05,14.36-63.85l0.59-60.09l19.9,60.88c10.95,33.5,21.39,62.42,23.21,64.27c1.83,1.86,8.9-15.71,15.71-39.06
	l21.49-73.62l9.08-31.19l0.64,62.95l0.64,62.95l22.96-3.85l22.96-3.83l-2.31-130.84c-1.26-71.97-3.03-131.71-3.92-132.76
	c-0.9-1.06-10.79,0.5-21.98,3.45c-19.87,5.24-20.89,7.19-41.72,79.16l-21.36,73.79l-22.24-67.9
	c-21.96-67.01-22.48-67.86-40.07-65.79c-9.81,1.15-19.74,3.96-22.08,6.24c-2.33,2.28-5.09,62.38-6.12,133.57
	C681.35,746.41,680.09,741.22,713.64,732.06L713.64,732.06z M1786.67,599.14c0-71.84-2.06-131.9-4.6-133.48
	c-2.53-1.57-12.86-3.85-22.96-5.04l-18.37-2.19l-1.79,48.34c-1.76,47.97-1.91,48.34-18.36,48.26c-41.34-0.21-43.5-2.99-45.43-58.28
	l-1.76-50.8l-19.9-1.95l-19.9-1.95v130.72c0,139.81-0.34,138.29,30.89,138.29c10.31,0,11.69-6.01,13.27-57.69l1.76-57.69l24.48,2.15
	c13.48,1.19,26.56,3.45,29.09,5.04c2.53,1.59,4.6,29.21,4.6,61.38v58.49l19.89,2.51c10.95,1.39,21.97,2.97,24.48,3.52
	C1784.6,729.31,1786.67,670.99,1786.67,599.14z M1007.4,688.78c40.09-16.57,57.23-78.06,33.04-118.47
	c-9.88-16.5-10.29-20.71-3.04-30.83c11.48-16,10.65-65.65-1.4-83.19c-14.8-21.51-36.79-27.24-86.53-22.48l-44.5,4.25v267.08
	l41.33-4.1C969.04,698.79,996.53,693.27,1007.4,688.78L1007.4,688.78z M950.33,646.27c-1.79-4.75-2.4-20.89-1.35-35.86
	c1.74-24.65,3.55-27.41,19.13-29.24c24.03-2.81,34.84,8.73,34.84,37.24c0,20.39-2.55,25.33-15.71,30.42
	C965.55,657.23,954.15,656.44,950.33,646.27L950.33,646.27z M947.84,509.01c0-23.78,1.96-27.9,14.82-31.19
	c20.66-5.27,33.62,1.19,38,18.97c4.93,20.01-12.58,39.61-35.4,39.61C948.76,536.4,947.84,534.95,947.84,509.01L947.84,509.01z
	 M1562.6,691.47c22.16-10.28,34.26-41.39,34.26-88.11v-40.31l-28.41-3.97c-44.61-6.22-45.07-6.04-45.07,17.87
	c0,17.68,2.33,21.83,12.24,21.83c17.8,0,18.01,47.19,0.24,52.94c-31.11,10.06-49.12-24.82-49.18-95.24
	c-0.04-52.33,12.32-82.44,33.86-82.44c12.4,0,17.79,4.44,23.24,19.12c6.54,17.66,8.72,18.82,28.55,15.04
	c11.8-2.25,22.32-4.93,23.36-5.97s-2.08-11.55-6.92-23.35c-26.86-65.52-106.22-70.48-133.2-8.34
	c-16.28,37.5-21.21,97.57-11.79,143.79c10.32,50.63,41.69,84.25,78.6,84.25C1536.08,698.57,1554.18,695.37,1562.6,691.47
	L1562.6,691.47z M1190.18,680.57c27.31-16.96,41.05-51.31,44.19-110.43c5.04-95.22-24.71-152.25-79.44-152.25
	c-19.72,0-28.68,4.12-44.9,20.65c-27.02,27.53-35.44,62.54-32.57,135.41c1.87,47.57,5.02,63.81,15.85,81.64
	C1115.74,692.58,1154.68,702.63,1190.18,680.57L1190.18,680.57z M1141.31,639.04c-31.41-31.99-25.87-161.23,7.47-174.27
	c38.98-15.23,57.44,132.14,21.61,172.48C1158.02,651.18,1153.49,651.45,1141.31,639.04z M1419.29,687.27
	c0-2.79-8.22-29.83-18.27-60.11l-18.27-55.05l18.94-21.97c17.22-19.98,18.69-25.01,16.21-55.33
	c-4.56-56.17-35.02-76.81-113.44-76.89l-38.27-0.03V686.1h48.98v-56.14c0-74.84,10.22-74.93,36.62-0.35
	c17.37,49.07,21.7,56.09,35.95,58.32C1416.73,692.46,1419.29,692.41,1419.29,687.27L1419.29,687.27z M1315.21,497.47v-33.42
	l21.21,2.53c26.71,3.18,35.25,13.55,32.78,39.79c-1.84,19.5-3.43,20.79-27.97,22.6l-26.03,1.92V497.47z M329.18,553.55
	c0.45-8.24-21.05-5-35.57,5.36l-14.05,10.02l13.96,15.14l13.96,15.12l10.72-20.48C324.1,567.44,329.04,556.13,329.18,553.55
	L329.18,553.55z"/>
<path class="st6" d="M1161.95,2598.63C731.48,2268.79,465.26,1863.78,341.82,1351c-49.64-206.24-79.73-460.99-79.73-674.95
	c0-116.77,8.2-129.62,108.74-170.31c323.02-130.73,802.44-176.76,1268.88-121.86c236.08,27.8,534.78,114.68,581.81,169.24
	c19.1,22.16,23.53,34.75,10.57,29.98c-4.22-1.55-13.97,2.15-21.69,8.22c-14,11-14.02,11.17-5.15,63.82
	c4.88,29.04,10.84,82.97,13.23,119.85c2.38,36.88,6.41,67.06,8.93,67.06c8.12,0,12.14-44.37,13.59-149.7l1.4-102.93l2.15,84.21
	c4.02,158.14-18.91,393.28-56.91,583.58c-70.87,354.97-208.55,661.72-416.96,928.99c-131.45,168.58-463.82,470.93-517.69,470.93
	C1243.94,2657.12,1208.99,2634.68,1161.95,2598.63L1161.95,2598.63z M1309.66,2606.37c79.89-52.57,158-119.43,248.13-212.39
	c123.59-127.5,195.21-212.59,219.96-261.36c7.57-14.9,7.22-17.77-3.46-27.6c-11.56-10.66-14.36-8.5-96.2,73.8
	c-102.32,102.91-173.1,161.07-173.1,142.28c0-11.14-79.26-56.9-126.57-73.09c-84.51-28.9-176.25-26.26-251.21,7.22l-31.85,14.23
	l-10.19-35.39c-28.79-99.94-44.96-232.74-29.6-242.97c3.7-2.46,14.4-22.01,23.78-43.43c12.18-27.81,26.15-46.85,48.91-66.66
	c19.27-16.78,34.09-35.65,37.5-47.75c5.8-20.59,32.89-46.37,44.44-42.3c9.97,3.52-11.99,48.1-39.87,80.91
	c-13.38,15.76-28,37.68-32.49,48.71c-7.09,17.44-6.86,21.39,1.71,30.12c9.07,9.25,10.23,9.09,14.41-1.97
	c4.12-10.93,4.86-10.6,8.13,3.57c4.71,20.41,22.94,22.77,57.05,7.4c23.8-10.72,27.35-15,30.81-37.02
	c2.15-13.7,8.27-28.58,13.6-33.09c6.52-5.51,9.18-16.5,8.15-33.56c-1.63-26.58,5.15-59.67,12.22-59.67
	c7.38,0,23.92,33.68,28.33,57.75c2.38,12.89,9.72,30.44,16.32,38.98c11.39,14.77,15.14,15.54,75.11,15.54h63.12l17.43-23.28
	c13.5-18.04,17.64-30.6,18.39-55.91c1.29-44.27,23.65-81.73,68.1-114.15l34.89-25.46l9.96,13.45c5.48,7.4,15.81,30.01,22.96,50.27
	c10.15,28.75,11.64,40.48,6.78,53.51c-3.42,9.18-7.26,33.67-8.54,54.45c-1.27,20.76-4.15,47.87-6.39,60.24
	c-3.54,19.58-1.91,24.21,12.63,35.86c21.08,16.89,26.34,16.79,33.23-0.65c4.01-10.16,5.65-11.13,5.92-3.49
	c0.66,17.82,12.79,19.55,28.89,4.14c13.08-12.51,14.8-18.39,11.69-39.63c-3.12-21.81-6.1-43.64-8.94-65.49
	c-2.9-22.3-7.31-45.55-9.82-51.69c-2.5-6.13-1.05-37.02,3.2-68.65c7.39-54.83,7.14-58.73-5.38-83.73
	c-17.95-35.86-16.77-41.42,6.23-29.31c26.55,13.98,85.69,18.76,109.21,8.83c20-8.43,42.88-33.69,42.88-47.33
	c0-6.13-7.41-7.36-29.1-4.81c-24.14,2.82-32.35,0.92-48.39-11.22c-10.61-8.03-30.63-23.03-44.5-33.33
	c-23.97-17.8-25.03-19.96-21.77-44.4c1.95-14.59-0.94-45.25-6.69-70.98c-5.56-24.9-8.46-54.05-6.44-64.75
	c2.02-10.7,6.39-32.93,9.73-49.39c8.37-41.34-1.63-83.62-30.17-127.66c-12.75-19.68-26.67-47-30.94-60.72
	c-4.27-13.71-13.09-32.7-19.62-42.17c-11.41-16.58-11.47-18.43-1.49-49.03c19.66-60.33-0.61-109.37-56.72-137.24
	c-27.26-13.53-39.47-14.83-179.25-18.95c-134.38-3.97-204.27-10.65-220.89-21.11c-11.38-7.17-5.45-28.13,10.01-35.31
	c13.15-6.11,24.19-4.38,68.88,10.77c56.96,19.29,116.88,23.27,150.02,9.95c22.03-8.86,17.09-16.73-13.65-21.73
	c-13.35-2.18-25.97-6.77-28.06-10.18c-5.21-8.59,7.84-7.81,54.71,3.27c37.89,8.95,70.83,7.48,70.83-3.16
	c0-6.86-51.72-28.52-95.79-40.1c-49.76-13.09-138.62-12.89-179,0.4c-37.18,12.24-77.33,45.3-83.01,68.37
	c-5.14,20.85,12.01,40.95,44.16,51.75c12.9,4.33,97.32,11.1,194.25,15.57c182.17,8.4,198.81,11.6,220.05,42.49
	c13.97,20.34,11.95,51.26-4.64,70.9c-13.91,16.47-14.87,16.65-47.45,9.31c-18.29-4.12-69.17-19.41-113.08-33.95
	c-61.88-20.51-83.91-25.31-97.96-21.37c-9.98,2.79-38.81,23.28-64.06,45.5c-25.42,22.37-72.67,54.77-105.84,72.57
	c-84.4,45.3-110.27,80.54-120.7,164.37c-5.86,47.16-16.05,71.51-58.62,140.27c-29.06,46.93-45.48,94.48-45.48,131.69
	c0,19.16-8.31,56.56-21.43,96.54c-18.08,55.06-21.43,73.91-21.43,120.72c0,46.93-2.36,60.13-15.29,85.69
	c-8.41,16.6-16.86,44.23-18.77,61.38c-5.73,51.41-7.11,54.69-39.17,93.29c-16.97,20.43-30.86,42.19-30.86,48.34
	c0,6.15-2.66,11.18-5.9,11.18c-10.26,0-36.96,45.84-36.96,63.45c0,23.55,11.74,28.53,25.28,10.73l11.36-14.93l-3.78,20.28
	c-3.28,17.61-2.1,20.27,8.97,20.27c8.81,0,17.91,9.18,29.37,29.62c64.8,115.6,207.77,285.37,314.55,373.51
	c53.89,44.48,127.83,95.86,137.95,95.86C1267.26,2632.18,1288.1,2620.56,1309.66,2606.37L1309.66,2606.37z M892.54,2030.78
	c3.35-8.99,5.79-30.15,5.42-47.05c-0.56-25.28,2.56-34.94,17.64-54.47c23.32-30.21,35.2-54.03,44.45-89.03
	c7.9-29.92,71.73-156.15,78.96-156.15c12.77,0,19.06,18.81,19.06,57.08c0,31.55,2.37,43.46,9.49,47.52
	c15.57,8.88-6.67,72.45-35.24,100.66c-37.06,36.62-55.76,52.98-73.57,64.36c-12.13,7.76-17.93,17.77-20.77,35.86
	c-2.17,13.8-6.13,25.1-8.81,25.1s-13.38,7.3-23.79,16.21l-18.92,16.23L892.54,2030.78L892.54,2030.78z M1315.21,810.85
	c-7.58-5-7.05-5.99,3.06-5.71c6.73,0.19,17.75,2.76,24.49,5.7c11.22,4.91,10.96,5.39-3.06,5.7
	C1331.28,816.74,1320.26,814.18,1315.21,810.85L1315.21,810.85z M448.04,1604.56c-11.45-36.88-33.1-117.58-48.07-179.32
	c-51.33-211.58-68.52-354.16-86.2-715.06c-3.01-61.36-6.43-83.15-15.45-98.24c-13.61-22.82-23.83-25.06-24.43-5.36
	c-7.82,256.06,33.61,581.81,104.24,819.55c30.67,103.23,80.75,245.5,86.43,245.5C466.93,1671.61,459.5,1641.44,448.04,1604.56z
	 M638.63,1238.29c119.12-31.95,230.28-125.38,282.22-237.2c6.37-13.71,11.81-26.35,12.07-28.06c0.26-1.72,5.69-19.96,12.05-40.54
	c8.59-27.75,11.64-56.78,11.81-112.28c0.26-83.93-4.22-108.79-19.78-109.91c-5.83-0.42,5.17-3.12,24.45-5.99
	c66.46-9.92,90.47-34.35,90.47-92.04c0-21.1-3.7-35.44-11.75-45.53c-11.01-13.79-11.11-15.46-1.53-26.3
	c6.67-7.54,10.22-22.39,10.22-42.62c0-27.17-2.48-33.3-20-49.24c-21.09-19.19-48.43-23.04-100.93-14.2l-22.96,3.86v82.88
	c0,45.58-1.67,87.32-3.72,92.74c-2.04,5.43-10.31,9.86-18.37,9.86h-14.65v-90.44c0-89.66-0.13-90.45-13.78-90.36
	c-35.68,0.22-38.29,3.69-59.9,79.52l-20.64,72.46l-21.53-66.71l-21.52-66.71l-21.63,3.97c-11.89,2.18-23.69,5.16-26.22,6.63
	c-2.53,1.47-4.59,41.5-4.59,88.95v86.28l-16.2,4.13c-8.91,2.28-18.15,1.88-20.54-0.88c-2.38-2.77-12.88-38.34-23.32-79.05
	c-10.44-40.72-20.19-75.28-21.69-76.82c-1.51-1.53-12.48-0.92-24.4,1.36l-21.66,4.14l-16.11,69.55
	c-29.12,125.79-23.44,114.12-59.76,122.76c-17.64,4.2-41.02,11.34-51.97,15.88l-19.9,8.25V632.1c0-74.79-1.13-84.12-9.75-80.74
	c-5.36,2.1-16.53,5.54-24.8,7.66l-15.05,3.85l2.35,141.15c2.6,155.68,10.43,212.05,49.67,357.06
	c29.96,110.7,56.97,179.65,73.2,186.86C496.79,1256.06,594.3,1250.18,638.63,1238.29z M564.51,638.81
	c2.05-5.43,3.72-15.81,3.72-23.07c0-17.05,9.38-6.93,14.63,15.78c3.38,14.61,2.04,17.16-9.05,17.16
	C564.45,648.68,561.84,645.9,564.51,638.81L564.51,638.81z M953.96,618.21c0-25.97,1.95-30.98,13.24-33.98
	c21.28-5.67,35.74,6.11,35.74,29.11c0,24.96-9.34,35.34-31.84,35.34C954.67,648.68,953.96,647.41,953.96,618.21L953.96,618.21z
	 M731.5,638.28c-2.24-2.29-4-8.61-3.9-14.04c0.15-8.11,1.35-7.84,6.69,1.51C740.88,637.3,738.97,645.88,731.5,638.28z
	 M814.11,617.49c0-8.59,1.39-12.09,3.08-7.8c1.7,4.29,1.7,11.31,0,15.59C815.5,629.57,814.11,626.07,814.11,617.49z M953.96,508.34
	c0-27.92,0.12-28.07,21.43-28.07c21.51,0,24.95,4.93,21.73,31.19c-1.48,12.13-17.98,24.95-32.08,24.95
	C955.99,536.4,953.96,531.25,953.96,508.34L953.96,508.34z M2135.31,1073.2c17.21-43.66,43.34-202.11,43-260.75
	c-0.13-22.33-4.68-45.34-12.05-60.85c-9.79-20.67-11.86-38.97-12.04-106.56l-0.21-81.6l-21.25-6.63l-21.25-6.65l-1.71,75.77
	c-1.62,71.75-2.36,75.67-13.95,73.91c-27.61-4.18-27.56-4-27.56-87.61v-80.5l-19.14-3.9c-10.52-2.14-21.55-3.9-24.48-3.9
	c-2.95,0-5.47,27.37-5.6,60.81l-0.24,60.82l-27.9-68.61c-15.34-37.74-29.7-70.42-31.9-72.64c-2.2-2.21-12.97-5.94-23.91-8.3
	l-19.91-4.26v81.57c0,80.98-0.1,81.58-14.08,81.58c-25.66,0-28.78-10.2-28.78-94.08c0-76.78-0.4-79.23-13.78-82.87
	c-35.84-9.79-35.2-11.26-35.2,81v84.93l-13.78-3.76c-7.58-2.07-15.84-3.8-18.36-3.85c-2.53-0.05-4.6-39.03-4.6-86.63v-86.53
	l-19.13-3.9c-10.52-2.14-21.55-3.89-24.49-3.89s-5.36,22.45-5.36,49.89c0,53.83,0.33,53.4-35.74,46.05l-18.91-3.85l-1.76-50.73
	l-1.77-50.73l-22.96-1.94l-22.96-1.93v267.6l21.62,2.56c11.89,1.42,22.91,1.26,24.49-0.35c1.58-1.61,2.87-27.72,2.87-58.03
	c0-59.55-0.63-58.66,35.97-51.2l19.14,3.89l0.38,47.57c0.43,52.83,8.95,171.63,13.71,191.02c23.68,96.62,99.71,185.93,188.78,221.8
	c47.18,19,74.86,23.69,135.14,22.9C2126.9,1089.18,2129.27,1088.52,2135.31,1073.2L2135.31,1073.2z M1967.63,665.82
	c-6.4-21.45-7.88-35.55-3.44-32.76c8.24,5.18,18.5,40.56,11.77,40.56C1972.66,673.62,1968.91,670.11,1967.63,665.82L1967.63,665.82z
	 M1570.79,688.8c19.7-13.15,26.06-33.53,26.06-83.46c0-47.4-2.58-49.96-50.5-50.14c-22.72-0.08-22.96,0.17-22.96,24.86
	c0,20.79,2.04,24.95,12.24,24.95c9.41,0,12.25,4.17,12.25,17.95c0,26.26-14.23,36.15-33.54,23.26
	c-19.33-12.91-24.62-32.56-24.62-91.39c0-71.41,27.24-104.6,50.8-61.91c8.92,16.16,13.54,18.64,31.86,17.15
	c19.23-1.57,21.3-3.51,20.27-18.97c-2.74-40.57-50.89-74.59-91.07-64.33c-24.04,6.15-49,36.16-57.01,68.53
	c-14.96,60.54-3.76,144.42,24.1,180.5C1490.75,704.43,1538.3,710.48,1570.79,688.8L1570.79,688.8z M1197.73,676.76
	c25.69-22.03,38.77-59.97,39.71-115.29c1.56-91.36-26.95-143.58-78.37-143.58c-54.21,0-85.61,51.48-85.61,140.35
	c0,57.8,13.88,102.28,37.94,121.56C1134.25,698.11,1174.47,696.7,1197.73,676.76z M1136.86,632.14c-5.51-6.76-9-30.88-10.13-70.18
	c-1.91-66.2,5.17-89.72,28.04-93.06c22.45-3.29,33.78,33.49,30.69,99.59c-2.63,55.75-9.86,73.95-29.44,73.95
	C1150.11,642.44,1141.48,637.8,1136.86,632.14L1136.86,632.14z M1313.91,634.64c2.37-72.94,12.36-72.53,38.37,1.55l19.71,56.14
	h26.71c14.7,0,26.62-0.7,26.5-1.56c-0.12-0.85-9.27-27.8-20.34-59.88l-20.14-58.32l17.28-17.61c14.38-14.65,17.28-22.88,17.28-48.98
	c0-64.66-21.08-83.08-99.5-86.97l-53.58-2.66v134.35c0,143.15-0.22,142.13,30.61,139.71
	C1311.76,689.24,1312.19,687.84,1313.91,634.64L1313.91,634.64z M1315.21,498.98c0-31.13,0.04-31.19,20.21-31.19
	c24.33,0,34.9,9.44,34.9,31.19c0,21.75-10.57,31.19-34.9,31.19C1315.25,530.17,1315.21,530.1,1315.21,498.98z M317.19,590.49
	c0-4.15,6.99-18.02,15.53-30.83c12.45-18.65,13.61-23.28,5.88-23.28c-10.61,0-58.15,23.26-58.15,28.46
	c0,1.78,5.94,11.43,13.21,21.46C306.5,603.97,317.19,605.88,317.19,590.49L317.19,590.49z M673.64,446.16
	c256.33-42.12,510.35-55.33,779.31-40.53c109.91,6.04,296.29,24.48,370.44,36.65c32.15,5.27,42.62,4.46,35.53-2.76
	c-5.24-5.34-148.98-32.61-225.35-42.73c-143.24-19.01-256.61-24.13-461.92-20.86c-213.68,3.41-303.94,11.36-444.25,39.17
	c-103.93,20.6-191.5,46.44-157.35,46.44C575.57,461.54,622.17,454.63,673.64,446.16L673.64,446.16z"/>
</svg>
