<?xml version="1.0" encoding="utf-8"?>
<!-- Generator: Adobe Illustrator 25.4.8, SVG Export Plug-In . SVG Version: 6.00 Build 0)  -->
<svg version="1.1" id="Layer_1" xmlns="http://www.w3.org/2000/svg" xmlns:xlink="http://www.w3.org/1999/xlink" x="0px" y="0px"
	 viewBox="0 0 2500 3000" style="enable-background:new 0 0 2500 3000;" xml:space="preserve">
<style type="text/css">
	.st0{fill:#E31937;}
	.st1{fill:#FFFFFF;}
</style>
<path class="st0" d="M386.85,145.86h1729v2499.57h-1729V145.86z"/>
<g>
	<path class="st1" d="M1719.62,2161.91v109.54h35.13v-72.93h127.85v72.93h35.1V2162.1L1719.62,2161.91 M1750.84,2126.48h135.08
		c18.76-3.73,32.71-20.29,36.65-36.31h-208.37C1718.09,2106.2,1732.25,2122.75,1750.84,2126.48"/>
</g>
<path class="st1" d="M1613.23,2271.52c17.71-7.51,27.24-20.5,30.89-35.7h-157.56l0.1-145.56l-35.32,0.1v181.16H1613.23
	 M1188.7,2125.99h124.75c18.81-5.46,34.6-19.79,38.45-35.67h-198.17v107.06h162.19v37.57l-127.22,0.1
	c-19.94,5.56-36.84,18.95-45.28,36.63l10.31-0.19h197.04v-109.7h-162.07L1188.7,2125.99"/>
<g>
	<path class="st1" d="M880.74,2126.33h135.03c18.79-3.74,32.75-20.29,36.66-36.32H844.07
		C847.96,2106.04,862.13,2122.59,880.74,2126.33 M880.74,2197.93h135.03c18.79-3.7,32.75-20.27,36.66-36.31H844.07
		C847.96,2177.68,862.13,2194.23,880.74,2197.93 M880.74,2271.5h135.03c18.79-3.73,32.75-20.29,36.66-36.31H844.07
		C847.96,2251.23,862.13,2267.77,880.74,2271.5"/>
</g>
<path class="st1" d="M529.44,2090.46c4.06,15.83,17.77,32.01,36.57,36.07h56.84l2.9,1.15v143.43h35.49v-143.43l3.23-1.15h56.89
	c19.02-4.9,32.42-20.24,36.41-36.07v-0.35H529.44V2090.46"/>
<g>
	<path class="st1" d="M1252.43,1732.08l177.35-997.42c169.04,0,222.36,18.54,230.07,94.2c0,0,113.41-42.28,170.6-128.16
		C1607.25,597.28,1383,592.61,1383,592.61l-130.86,159.38l0.3-0.02l-130.86-159.39c0,0-224.26,4.67-447.42,108.09
		c57.15,85.88,170.59,128.16,170.59,128.16c7.74-75.67,61-94.2,228.91-94.32L1252.43,1732.08"/>
	<path class="st1" d="M1252.36,546.57c180.42-1.38,386.92,27.91,598.33,120.05c28.26-50.86,35.52-73.33,35.52-73.33
		c-231.1-91.43-447.52-122.72-633.88-123.5c-186.35,0.78-402.76,32.08-633.83,123.5c0,0,10.31,27.69,35.49,73.33
		c211.36-92.14,417.91-121.43,598.34-120.05H1252.36"/>
</g>
</svg>
